<?xml version="1.0" encoding="utf-8" standalone="no"?>
<!DOCTYPE svg PUBLIC "-//W3C//DTD SVG 1.1//EN"
  "http://www.w3.org/Graphics/SVG/1.1/DTD/svg11.dtd">
<!-- Created with matplotlib (http://matplotlib.org/) -->
<svg height="430pt" version="1.1" viewBox="0 0 432 430" width="432pt" xmlns="http://www.w3.org/2000/svg" xmlns:xlink="http://www.w3.org/1999/xlink">
 <defs>
  <style type="text/css">
*{stroke-linecap:butt;stroke-linejoin:round;}
  </style>
 </defs>
 <g id="figure_1">
  <g id="patch_1">
   <path d="
M0 430.2
L432 430.2
L432 0
L0 0
z
" style="fill:#ffffff;"/>
  </g>
  <g id="axes_1">
   <g id="patch_2">
    <path d="
M54 387.18
L388.8 387.18
L388.8 43.02
L54 43.02
z
" style="fill:#ffffff;"/>
   </g>
   <g id="line2d_1">
    <path clip-path="url(#p5c58de3997)" d="
M54 262.626
L87.5949 266.739
L107.247 266.827
L121.19 265.531
L132.005 263.708
L140.842 261.684
L148.313 259.598
L154.785 257.511
L160.493 255.455
L165.6 253.447
L174.437 249.601
L181.908 245.999
L188.38 242.636
L196.709 238.005
L203.814 233.813
L211.911 228.797
L220.436 223.271
L230.304 216.594
L240.606 209.326
L250.799 201.843
L260.6 194.361
L269.89 186.992
L279.101 179.392
L288.015 171.735
L296.528 164.129
L305.147 156.119
L313.619 147.939
L322.188 139.359
L331.089 130.13
L340.349 120.206
L350.206 109.309
L360.698 97.3739
L372.064 84.1004
L384.495 69.2341
L388.752 64.0702
L388.752 64.0702" style="fill:none;stroke:#000000;stroke-linecap:square;stroke-width:4;"/>
   </g>
   <g id="line2d_2">
    <path clip-path="url(#p5c58de3997)" d="
M54 314.959
L87.5949 312.814
L107.247 309.986
L121.19 306.975
L132.005 304.043
L140.842 301.296
L148.313 298.76
L160.493 294.287
L174.437 288.787
L191.318 281.785
L213.74 272.178
L249.956 256.363
L347.328 213.505
L388.752 195.257
L388.752 195.257" style="fill:none;stroke:#ffd700;stroke-linecap:square;stroke-width:2.5;"/>
   </g>
   <g id="line2d_3">
    <path clip-path="url(#p5c58de3997)" d="
M54 332.173
L87.5949 324.584
L107.247 317.545
L121.19 311.455
L132.005 306.115
L140.842 301.336
L148.313 296.992
L154.785 292.999
L160.493 289.3
L170.219 282.627
L178.316 276.743
L188.38 269.065
L199.195 260.447
L211.911 249.953
L226.318 237.745
L246.429 220.375
L277.2 193.462
L346.291 132.66
L388.752 95.2516
L388.752 95.2516" style="fill:none;stroke:#228b22;stroke-linecap:square;stroke-width:2.5;"/>
   </g>
   <g id="line2d_4">
    <path clip-path="url(#p5c58de3997)" d="
M54 364.091
L87.5949 358.267
L107.247 351.437
L121.19 344.763
L132.005 338.559
L140.842 332.845
L148.313 327.57
L154.785 322.68
L160.493 318.127
L170.219 309.878
L178.316 302.578
L185.252 296.05
L194.088 287.418
L203.814 277.583
L215.503 265.404
L229.011 250.971
L244.565 234.015
L262.606 214.016
L282.258 191.894
L301.471 169.935
L320.034 148.381
L337.779 127.433
L355.108 106.631
L372.541 85.3539
L388.752 65.2638
L388.752 65.2638" style="fill:none;stroke:#6a5acd;stroke-linecap:square;stroke-width:2.5;"/>
   </g>
   <g id="line2d_5">
    <path clip-path="url(#p5c58de3997)" d="
M54 262.722
L87.5949 266.933
L107.247 267.115
L121.19 265.909
L132.005 264.173
L140.842 262.233
L148.313 260.228
L154.785 258.221
L160.493 256.243
L165.6 254.311
L174.437 250.616
L181.908 247.163
L188.38 243.949
L196.709 239.544
L205.969 234.345
L215.503 228.727
L227.683 221.254
L241.627 212.409
L257.79 201.882
L274.714 190.592
L289.542 180.439
L301.764 171.812
L312.228 164.164
L321.61 157.037
L330.285 150.169
L338.469 143.41
L346.523 136.467
L354.62 129.191
L362.98 121.375
L371.858 112.766
L381.603 102.999
L388.752 95.6611
L388.752 95.6611" style="fill:none;stroke:#ff0000;stroke-linecap:square;stroke-width:2.5;"/>
   </g>
   <g id="patch_3">
    <path d="
M54 43.02
L388.8 43.02" style="fill:none;stroke:#000000;stroke-linecap:square;stroke-linejoin:miter;"/>
   </g>
   <g id="patch_4">
    <path d="
M388.8 387.18
L388.8 43.02" style="fill:none;stroke:#000000;stroke-linecap:square;stroke-linejoin:miter;"/>
   </g>
   <g id="patch_5">
    <path d="
M54 387.18
L388.8 387.18" style="fill:none;stroke:#000000;stroke-linecap:square;stroke-linejoin:miter;"/>
   </g>
   <g id="patch_6">
    <path d="
M54 387.18
L54 43.02" style="fill:none;stroke:#000000;stroke-linecap:square;stroke-linejoin:miter;"/>
   </g>
   <g id="matplotlib.axis_1">
    <g id="xtick_1">
     <g id="line2d_6">
      <path clip-path="url(#p5c58de3997)" d="
M54 387.18
L54 43.02" style="fill:none;opacity:0.75;stroke:#708090;stroke-dasharray:1.000000,3.000000;stroke-dashoffset:0.0;stroke-width:0.5;"/>
     </g>
     <g id="line2d_7">
      <defs>
       <path d="
M0 0
L0 -4" id="m93b0483c22" style="stroke:#000000;stroke-width:0.5;"/>
      </defs>
      <g>
       <use style="stroke:#000000;stroke-width:0.5;" x="54.0" xlink:href="#m93b0483c22" y="387.18"/>
      </g>
     </g>
     <g id="line2d_8">
      <defs>
       <path d="
M0 0
L0 4" id="m741efc42ff" style="stroke:#000000;stroke-width:0.5;"/>
      </defs>
      <g>
       <use style="stroke:#000000;stroke-width:0.5;" x="54.0" xlink:href="#m741efc42ff" y="43.02"/>
      </g>
     </g>
     <g id="text_1">
      <!-- $\mathdefault{10^{0}}$ -->
      <defs>
       <path d="
M31.7812 66.4062
Q24.1719 66.4062 20.3281 58.9062
Q16.5 51.4219 16.5 36.375
Q16.5 21.3906 20.3281 13.8906
Q24.1719 6.39062 31.7812 6.39062
Q39.4531 6.39062 43.2812 13.8906
Q47.125 21.3906 47.125 36.375
Q47.125 51.4219 43.2812 58.9062
Q39.4531 66.4062 31.7812 66.4062
M31.7812 74.2188
Q44.0469 74.2188 50.5156 64.5156
Q56.9844 54.8281 56.9844 36.375
Q56.9844 17.9688 50.5156 8.26562
Q44.0469 -1.42188 31.7812 -1.42188
Q19.5312 -1.42188 13.0625 8.26562
Q6.59375 17.9688 6.59375 36.375
Q6.59375 54.8281 13.0625 64.5156
Q19.5312 74.2188 31.7812 74.2188" id="BitstreamVeraSans-Roman-30"/>
       <path d="
M12.4062 8.29688
L28.5156 8.29688
L28.5156 63.9219
L10.9844 60.4062
L10.9844 69.3906
L28.4219 72.9062
L38.2812 72.9062
L38.2812 8.29688
L54.3906 8.29688
L54.3906 0
L12.4062 0
z
" id="BitstreamVeraSans-Roman-31"/>
      </defs>
      <g transform="translate(44.35 399.8003125)scale(0.1 -0.1)">
       <use transform="translate(0.0 0.546875)" xlink:href="#BitstreamVeraSans-Roman-31"/>
       <use transform="translate(63.623046875 0.546875)" xlink:href="#BitstreamVeraSans-Roman-30"/>
       <use transform="translate(127.24609375 53.046875)scale(0.7)" xlink:href="#BitstreamVeraSans-Roman-30"/>
      </g>
     </g>
    </g>
    <g id="xtick_2">
     <g id="line2d_9">
      <path clip-path="url(#p5c58de3997)" d="
M165.6 387.18
L165.6 43.02" style="fill:none;opacity:0.75;stroke:#708090;stroke-dasharray:1.000000,3.000000;stroke-dashoffset:0.0;stroke-width:0.5;"/>
     </g>
     <g id="line2d_10">
      <g>
       <use style="stroke:#000000;stroke-width:0.5;" x="165.6" xlink:href="#m93b0483c22" y="387.18"/>
      </g>
     </g>
     <g id="line2d_11">
      <g>
       <use style="stroke:#000000;stroke-width:0.5;" x="165.6" xlink:href="#m741efc42ff" y="43.02"/>
      </g>
     </g>
     <g id="text_2">
      <!-- $\mathdefault{10^{1}}$ -->
      <g transform="translate(155.95 399.7003125)scale(0.1 -0.1)">
       <use transform="translate(0.0 0.465625)" xlink:href="#BitstreamVeraSans-Roman-31"/>
       <use transform="translate(63.623046875 0.465625)" xlink:href="#BitstreamVeraSans-Roman-30"/>
       <use transform="translate(127.24609375 52.965625)scale(0.7)" xlink:href="#BitstreamVeraSans-Roman-31"/>
      </g>
     </g>
    </g>
    <g id="xtick_3">
     <g id="line2d_12">
      <path clip-path="url(#p5c58de3997)" d="
M277.2 387.18
L277.2 43.02" style="fill:none;opacity:0.75;stroke:#708090;stroke-dasharray:1.000000,3.000000;stroke-dashoffset:0.0;stroke-width:0.5;"/>
     </g>
     <g id="line2d_13">
      <g>
       <use style="stroke:#000000;stroke-width:0.5;" x="277.2" xlink:href="#m93b0483c22" y="387.18"/>
      </g>
     </g>
     <g id="line2d_14">
      <g>
       <use style="stroke:#000000;stroke-width:0.5;" x="277.2" xlink:href="#m741efc42ff" y="43.02"/>
      </g>
     </g>
     <g id="text_3">
      <!-- $\mathdefault{10^{2}}$ -->
      <defs>
       <path d="
M19.1875 8.29688
L53.6094 8.29688
L53.6094 0
L7.32812 0
L7.32812 8.29688
Q12.9375 14.1094 22.625 23.8906
Q32.3281 33.6875 34.8125 36.5312
Q39.5469 41.8438 41.4219 45.5312
Q43.3125 49.2188 43.3125 52.7812
Q43.3125 58.5938 39.2344 62.25
Q35.1562 65.9219 28.6094 65.9219
Q23.9688 65.9219 18.8125 64.3125
Q13.6719 62.7031 7.8125 59.4219
L7.8125 69.3906
Q13.7656 71.7812 18.9375 73
Q24.125 74.2188 28.4219 74.2188
Q39.75 74.2188 46.4844 68.5469
Q53.2188 62.8906 53.2188 53.4219
Q53.2188 48.9219 51.5312 44.8906
Q49.8594 40.875 45.4062 35.4062
Q44.1875 33.9844 37.6406 27.2188
Q31.1094 20.4531 19.1875 8.29688" id="BitstreamVeraSans-Roman-32"/>
      </defs>
      <g transform="translate(267.55 399.8003125)scale(0.1 -0.1)">
       <use transform="translate(0.0 0.546875)" xlink:href="#BitstreamVeraSans-Roman-31"/>
       <use transform="translate(63.623046875 0.546875)" xlink:href="#BitstreamVeraSans-Roman-30"/>
       <use transform="translate(127.24609375 53.046875)scale(0.7)" xlink:href="#BitstreamVeraSans-Roman-32"/>
      </g>
     </g>
    </g>
    <g id="xtick_4">
     <g id="line2d_15">
      <path clip-path="url(#p5c58de3997)" d="
M388.8 387.18
L388.8 43.02" style="fill:none;opacity:0.75;stroke:#708090;stroke-dasharray:1.000000,3.000000;stroke-dashoffset:0.0;stroke-width:0.5;"/>
     </g>
     <g id="line2d_16">
      <g>
       <use style="stroke:#000000;stroke-width:0.5;" x="388.8" xlink:href="#m93b0483c22" y="387.18"/>
      </g>
     </g>
     <g id="line2d_17">
      <g>
       <use style="stroke:#000000;stroke-width:0.5;" x="388.8" xlink:href="#m741efc42ff" y="43.02"/>
      </g>
     </g>
     <g id="text_4">
      <!-- $\mathdefault{10^{3}}$ -->
      <defs>
       <path d="
M40.5781 39.3125
Q47.6562 37.7969 51.625 33
Q55.6094 28.2188 55.6094 21.1875
Q55.6094 10.4062 48.1875 4.48438
Q40.7656 -1.42188 27.0938 -1.42188
Q22.5156 -1.42188 17.6562 -0.515625
Q12.7969 0.390625 7.625 2.20312
L7.625 11.7188
Q11.7188 9.32812 16.5938 8.10938
Q21.4844 6.89062 26.8125 6.89062
Q36.0781 6.89062 40.9375 10.5469
Q45.7969 14.2031 45.7969 21.1875
Q45.7969 27.6406 41.2812 31.2656
Q36.7656 34.9062 28.7188 34.9062
L20.2188 34.9062
L20.2188 43.0156
L29.1094 43.0156
Q36.375 43.0156 40.2344 45.9219
Q44.0938 48.8281 44.0938 54.2969
Q44.0938 59.9062 40.1094 62.9062
Q36.1406 65.9219 28.7188 65.9219
Q24.6562 65.9219 20.0156 65.0312
Q15.375 64.1562 9.8125 62.3125
L9.8125 71.0938
Q15.4375 72.6562 20.3438 73.4375
Q25.25 74.2188 29.5938 74.2188
Q40.8281 74.2188 47.3594 69.1094
Q53.9062 64.0156 53.9062 55.3281
Q53.9062 49.2656 50.4375 45.0938
Q46.9688 40.9219 40.5781 39.3125" id="BitstreamVeraSans-Roman-33"/>
      </defs>
      <g transform="translate(379.15 399.8003125)scale(0.1 -0.1)">
       <use transform="translate(0.0 0.546875)" xlink:href="#BitstreamVeraSans-Roman-31"/>
       <use transform="translate(63.623046875 0.546875)" xlink:href="#BitstreamVeraSans-Roman-30"/>
       <use transform="translate(127.24609375 53.046875)scale(0.7)" xlink:href="#BitstreamVeraSans-Roman-33"/>
      </g>
     </g>
    </g>
    <g id="xtick_5">
     <g id="line2d_18">
      <defs>
       <path d="
M0 0
L0 -2" id="m177f7580d0" style="stroke:#000000;stroke-width:0.5;"/>
      </defs>
      <g>
       <use style="stroke:#000000;stroke-width:0.5;" x="87.5949475161" xlink:href="#m177f7580d0" y="387.18"/>
      </g>
     </g>
     <g id="line2d_19">
      <defs>
       <path d="
M0 0
L0 2" id="m5284c7e2a0" style="stroke:#000000;stroke-width:0.5;"/>
      </defs>
      <g>
       <use style="stroke:#000000;stroke-width:0.5;" x="87.5949475161" xlink:href="#m5284c7e2a0" y="43.02"/>
      </g>
     </g>
    </g>
    <g id="xtick_6">
     <g id="line2d_20">
      <g>
       <use style="stroke:#000000;stroke-width:0.5;" x="107.246732027" xlink:href="#m177f7580d0" y="387.18"/>
      </g>
     </g>
     <g id="line2d_21">
      <g>
       <use style="stroke:#000000;stroke-width:0.5;" x="107.246732027" xlink:href="#m5284c7e2a0" y="43.02"/>
      </g>
     </g>
    </g>
    <g id="xtick_7">
     <g id="line2d_22">
      <g>
       <use style="stroke:#000000;stroke-width:0.5;" x="121.189895032" xlink:href="#m177f7580d0" y="387.18"/>
      </g>
     </g>
     <g id="line2d_23">
      <g>
       <use style="stroke:#000000;stroke-width:0.5;" x="121.189895032" xlink:href="#m5284c7e2a0" y="43.02"/>
      </g>
     </g>
    </g>
    <g id="xtick_8">
     <g id="line2d_24">
      <g>
       <use style="stroke:#000000;stroke-width:0.5;" x="132.005052484" xlink:href="#m177f7580d0" y="387.18"/>
      </g>
     </g>
     <g id="line2d_25">
      <g>
       <use style="stroke:#000000;stroke-width:0.5;" x="132.005052484" xlink:href="#m5284c7e2a0" y="43.02"/>
      </g>
     </g>
    </g>
    <g id="xtick_9">
     <g id="line2d_26">
      <g>
       <use style="stroke:#000000;stroke-width:0.5;" x="140.841679543" xlink:href="#m177f7580d0" y="387.18"/>
      </g>
     </g>
     <g id="line2d_27">
      <g>
       <use style="stroke:#000000;stroke-width:0.5;" x="140.841679543" xlink:href="#m5284c7e2a0" y="43.02"/>
      </g>
     </g>
    </g>
    <g id="xtick_10">
     <g id="line2d_28">
      <g>
       <use style="stroke:#000000;stroke-width:0.5;" x="148.312941266" xlink:href="#m177f7580d0" y="387.18"/>
      </g>
     </g>
     <g id="line2d_29">
      <g>
       <use style="stroke:#000000;stroke-width:0.5;" x="148.312941266" xlink:href="#m5284c7e2a0" y="43.02"/>
      </g>
     </g>
    </g>
    <g id="xtick_11">
     <g id="line2d_30">
      <g>
       <use style="stroke:#000000;stroke-width:0.5;" x="154.784842548" xlink:href="#m177f7580d0" y="387.18"/>
      </g>
     </g>
     <g id="line2d_31">
      <g>
       <use style="stroke:#000000;stroke-width:0.5;" x="154.784842548" xlink:href="#m5284c7e2a0" y="43.02"/>
      </g>
     </g>
    </g>
    <g id="xtick_12">
     <g id="line2d_32">
      <g>
       <use style="stroke:#000000;stroke-width:0.5;" x="160.493464053" xlink:href="#m177f7580d0" y="387.18"/>
      </g>
     </g>
     <g id="line2d_33">
      <g>
       <use style="stroke:#000000;stroke-width:0.5;" x="160.493464053" xlink:href="#m5284c7e2a0" y="43.02"/>
      </g>
     </g>
    </g>
    <g id="xtick_13">
     <g id="line2d_34">
      <g>
       <use style="stroke:#000000;stroke-width:0.5;" x="199.194947516" xlink:href="#m177f7580d0" y="387.18"/>
      </g>
     </g>
     <g id="line2d_35">
      <g>
       <use style="stroke:#000000;stroke-width:0.5;" x="199.194947516" xlink:href="#m5284c7e2a0" y="43.02"/>
      </g>
     </g>
    </g>
    <g id="xtick_14">
     <g id="line2d_36">
      <g>
       <use style="stroke:#000000;stroke-width:0.5;" x="218.846732027" xlink:href="#m177f7580d0" y="387.18"/>
      </g>
     </g>
     <g id="line2d_37">
      <g>
       <use style="stroke:#000000;stroke-width:0.5;" x="218.846732027" xlink:href="#m5284c7e2a0" y="43.02"/>
      </g>
     </g>
    </g>
    <g id="xtick_15">
     <g id="line2d_38">
      <g>
       <use style="stroke:#000000;stroke-width:0.5;" x="232.789895032" xlink:href="#m177f7580d0" y="387.18"/>
      </g>
     </g>
     <g id="line2d_39">
      <g>
       <use style="stroke:#000000;stroke-width:0.5;" x="232.789895032" xlink:href="#m5284c7e2a0" y="43.02"/>
      </g>
     </g>
    </g>
    <g id="xtick_16">
     <g id="line2d_40">
      <g>
       <use style="stroke:#000000;stroke-width:0.5;" x="243.605052484" xlink:href="#m177f7580d0" y="387.18"/>
      </g>
     </g>
     <g id="line2d_41">
      <g>
       <use style="stroke:#000000;stroke-width:0.5;" x="243.605052484" xlink:href="#m5284c7e2a0" y="43.02"/>
      </g>
     </g>
    </g>
    <g id="xtick_17">
     <g id="line2d_42">
      <g>
       <use style="stroke:#000000;stroke-width:0.5;" x="252.441679543" xlink:href="#m177f7580d0" y="387.18"/>
      </g>
     </g>
     <g id="line2d_43">
      <g>
       <use style="stroke:#000000;stroke-width:0.5;" x="252.441679543" xlink:href="#m5284c7e2a0" y="43.02"/>
      </g>
     </g>
    </g>
    <g id="xtick_18">
     <g id="line2d_44">
      <g>
       <use style="stroke:#000000;stroke-width:0.5;" x="259.912941266" xlink:href="#m177f7580d0" y="387.18"/>
      </g>
     </g>
     <g id="line2d_45">
      <g>
       <use style="stroke:#000000;stroke-width:0.5;" x="259.912941266" xlink:href="#m5284c7e2a0" y="43.02"/>
      </g>
     </g>
    </g>
    <g id="xtick_19">
     <g id="line2d_46">
      <g>
       <use style="stroke:#000000;stroke-width:0.5;" x="266.384842548" xlink:href="#m177f7580d0" y="387.18"/>
      </g>
     </g>
     <g id="line2d_47">
      <g>
       <use style="stroke:#000000;stroke-width:0.5;" x="266.384842548" xlink:href="#m5284c7e2a0" y="43.02"/>
      </g>
     </g>
    </g>
    <g id="xtick_20">
     <g id="line2d_48">
      <g>
       <use style="stroke:#000000;stroke-width:0.5;" x="272.093464053" xlink:href="#m177f7580d0" y="387.18"/>
      </g>
     </g>
     <g id="line2d_49">
      <g>
       <use style="stroke:#000000;stroke-width:0.5;" x="272.093464053" xlink:href="#m5284c7e2a0" y="43.02"/>
      </g>
     </g>
    </g>
    <g id="xtick_21">
     <g id="line2d_50">
      <g>
       <use style="stroke:#000000;stroke-width:0.5;" x="310.794947516" xlink:href="#m177f7580d0" y="387.18"/>
      </g>
     </g>
     <g id="line2d_51">
      <g>
       <use style="stroke:#000000;stroke-width:0.5;" x="310.794947516" xlink:href="#m5284c7e2a0" y="43.02"/>
      </g>
     </g>
    </g>
    <g id="xtick_22">
     <g id="line2d_52">
      <g>
       <use style="stroke:#000000;stroke-width:0.5;" x="330.446732027" xlink:href="#m177f7580d0" y="387.18"/>
      </g>
     </g>
     <g id="line2d_53">
      <g>
       <use style="stroke:#000000;stroke-width:0.5;" x="330.446732027" xlink:href="#m5284c7e2a0" y="43.02"/>
      </g>
     </g>
    </g>
    <g id="xtick_23">
     <g id="line2d_54">
      <g>
       <use style="stroke:#000000;stroke-width:0.5;" x="344.389895032" xlink:href="#m177f7580d0" y="387.18"/>
      </g>
     </g>
     <g id="line2d_55">
      <g>
       <use style="stroke:#000000;stroke-width:0.5;" x="344.389895032" xlink:href="#m5284c7e2a0" y="43.02"/>
      </g>
     </g>
    </g>
    <g id="xtick_24">
     <g id="line2d_56">
      <g>
       <use style="stroke:#000000;stroke-width:0.5;" x="355.205052484" xlink:href="#m177f7580d0" y="387.18"/>
      </g>
     </g>
     <g id="line2d_57">
      <g>
       <use style="stroke:#000000;stroke-width:0.5;" x="355.205052484" xlink:href="#m5284c7e2a0" y="43.02"/>
      </g>
     </g>
    </g>
    <g id="xtick_25">
     <g id="line2d_58">
      <g>
       <use style="stroke:#000000;stroke-width:0.5;" x="364.041679543" xlink:href="#m177f7580d0" y="387.18"/>
      </g>
     </g>
     <g id="line2d_59">
      <g>
       <use style="stroke:#000000;stroke-width:0.5;" x="364.041679543" xlink:href="#m5284c7e2a0" y="43.02"/>
      </g>
     </g>
    </g>
    <g id="xtick_26">
     <g id="line2d_60">
      <g>
       <use style="stroke:#000000;stroke-width:0.5;" x="371.512941266" xlink:href="#m177f7580d0" y="387.18"/>
      </g>
     </g>
     <g id="line2d_61">
      <g>
       <use style="stroke:#000000;stroke-width:0.5;" x="371.512941266" xlink:href="#m5284c7e2a0" y="43.02"/>
      </g>
     </g>
    </g>
    <g id="xtick_27">
     <g id="line2d_62">
      <g>
       <use style="stroke:#000000;stroke-width:0.5;" x="377.984842548" xlink:href="#m177f7580d0" y="387.18"/>
      </g>
     </g>
     <g id="line2d_63">
      <g>
       <use style="stroke:#000000;stroke-width:0.5;" x="377.984842548" xlink:href="#m5284c7e2a0" y="43.02"/>
      </g>
     </g>
    </g>
    <g id="xtick_28">
     <g id="line2d_64">
      <g>
       <use style="stroke:#000000;stroke-width:0.5;" x="383.693464053" xlink:href="#m177f7580d0" y="387.18"/>
      </g>
     </g>
     <g id="line2d_65">
      <g>
       <use style="stroke:#000000;stroke-width:0.5;" x="383.693464053" xlink:href="#m5284c7e2a0" y="43.02"/>
      </g>
     </g>
    </g>
    <g id="text_5">
     <!-- Frequence [$H_z$] -->
     <defs>
      <path id="BitstreamVeraSans-Roman-20"/>
      <path d="
M8.59375 75.9844
L29.2969 75.9844
L29.2969 69
L17.5781 69
L17.5781 -6.20312
L29.2969 -6.20312
L29.2969 -13.1875
L8.59375 -13.1875
z
" id="BitstreamVeraSans-Roman-5b"/>
      <path d="
M4.89062 -1.125
Q4.10938 -1.125 4.10938 -0.203125
Q4.10938 0.296875 4.29688 0.484375
Q6.98438 5.125 10.7656 9.34375
Q14.5469 13.5781 19.3594 17.8906
Q24.1719 22.2188 29.0312 26.5625
Q33.8906 30.9062 36.9219 34.2812
L36.5312 34.2812
Q34.3281 34.2812 30.0781 35.6875
Q25.8281 37.1094 23.3906 37.1094
Q20.75 37.1094 18.25 35.9531
Q15.7656 34.8125 15.0938 32.4219
Q14.9375 31.6875 14.3125 31.6875
L13.0938 31.6875
Q12.3125 31.6875 12.3125 32.7188
L12.3125 33.0156
Q13.0938 35.9375 14.875 38.4688
Q16.6562 41.0156 19.2656 42.5938
Q21.875 44.1875 24.7031 44.1875
Q26.7031 44.1875 28.0156 43.2812
Q29.3438 42.3906 31.0938 40.4844
Q32.8594 38.5781 33.9531 37.75
Q35.0625 36.9219 36.7188 36.9219
Q38.9219 36.9219 40.6562 38.9219
Q42.3906 40.9219 44.0938 43.8906
Q44.3906 44.1875 44.8281 44.1875
L46 44.1875
Q46.3438 44.1875 46.5625 43.9375
Q46.7812 43.7031 46.7812 43.3125
Q46.7812 42.9688 46.5781 42.6719
Q43.8906 38.0312 40.2969 34
Q36.7188 29.9844 30.9219 24.7812
Q25.1406 19.5781 21.1562 15.9844
Q17.1875 12.4062 13.7188 8.59375
Q14.5 8.79688 15.8281 8.79688
Q18.2656 8.79688 22.4844 7.39062
Q26.7031 6 29 6
Q31.5 6 34.0312 7.07812
Q36.5781 8.15625 38.4219 10.1094
Q40.2812 12.0625 40.9219 14.5938
Q41.1562 15.2812 41.7031 15.2812
L42.9219 15.2812
Q43.3125 15.2812 43.5469 14.9688
Q43.7969 14.6562 43.7969 14.3125
Q43.7969 14.2031 43.7031 14.0156
Q42.7812 10.2031 40.4844 6.76562
Q38.1875 3.32812 34.8438 1.09375
Q31.5 -1.125 27.6875 -1.125
Q25.7812 -1.125 24.4531 -0.234375
Q23.1406 0.640625 21.3594 2.5625
Q19.5781 4.5 18.4531 5.34375
Q17.3281 6.20312 15.7188 6.20312
Q10.75 6.20312 6.78125 -0.78125
Q6.45312 -1.125 6.10938 -1.125
z
" id="Cmmi10-7a"/>
      <path d="
M30.4219 75.9844
L30.4219 -13.1875
L9.71875 -13.1875
L9.71875 -6.20312
L21.3906 -6.20312
L21.3906 69
L9.71875 69
L9.71875 75.9844
z
" id="BitstreamVeraSans-Roman-5d"/>
      <path d="
M54.8906 33.0156
L54.8906 0
L45.9062 0
L45.9062 32.7188
Q45.9062 40.4844 42.875 44.3281
Q39.8438 48.1875 33.7969 48.1875
Q26.5156 48.1875 22.3125 43.5469
Q18.1094 38.9219 18.1094 30.9062
L18.1094 0
L9.07812 0
L9.07812 54.6875
L18.1094 54.6875
L18.1094 46.1875
Q21.3438 51.125 25.7031 53.5625
Q30.0781 56 35.7969 56
Q45.2188 56 50.0469 50.1719
Q54.8906 44.3438 54.8906 33.0156" id="BitstreamVeraSans-Roman-6e"/>
      <path d="
M9.8125 72.9062
L51.7031 72.9062
L51.7031 64.5938
L19.6719 64.5938
L19.6719 43.1094
L48.5781 43.1094
L48.5781 34.8125
L19.6719 34.8125
L19.6719 0
L9.8125 0
z
" id="BitstreamVeraSans-Roman-46"/>
      <path d="
M56.2031 29.5938
L56.2031 25.2031
L14.8906 25.2031
Q15.4844 15.9219 20.4844 11.0625
Q25.4844 6.20312 34.4219 6.20312
Q39.5938 6.20312 44.4531 7.46875
Q49.3125 8.73438 54.1094 11.2812
L54.1094 2.78125
Q49.2656 0.734375 44.1875 -0.34375
Q39.1094 -1.42188 33.8906 -1.42188
Q20.7969 -1.42188 13.1562 6.1875
Q5.51562 13.8125 5.51562 26.8125
Q5.51562 40.2344 12.7656 48.1094
Q20.0156 56 32.3281 56
Q43.3594 56 49.7812 48.8906
Q56.2031 41.7969 56.2031 29.5938
M47.2188 32.2344
Q47.125 39.5938 43.0938 43.9844
Q39.0625 48.3906 32.4219 48.3906
Q24.9062 48.3906 20.3906 44.1406
Q15.875 39.8906 15.1875 32.1719
z
" id="BitstreamVeraSans-Roman-65"/>
      <path d="
M4.6875 0
Q3.71875 0 3.71875 1.3125
Q3.76562 1.5625 3.90625 2.17188
Q4.04688 2.78125 4.3125 3.14062
Q4.59375 3.51562 4.98438 3.51562
Q11.0781 3.51562 13.4844 4.20312
Q14.7969 4.64062 15.375 6.89062
L29.1094 61.8125
Q29.2969 62.7969 29.2969 63.1875
Q29.2969 64.2656 28.0781 64.4062
Q26.2188 64.7969 20.9062 64.7969
Q19.9219 64.7969 19.9219 66.1094
Q20.2656 67.3906 20.4531 67.8438
Q20.6562 68.3125 21.5781 68.3125
L48.4844 68.3125
Q49.5156 68.3125 49.5156 67
Q49.4688 66.75 49.3125 66.1562
Q49.1719 65.5781 48.9219 65.1875
Q48.6875 64.7969 48.1875 64.7969
Q42.0938 64.7969 39.7031 64.1094
Q38.375 63.625 37.7969 61.375
L31.7812 37.3125
L61.8125 37.3125
L67.9219 61.8125
Q68.1094 62.7969 68.1094 63.1875
Q68.1094 64.2656 66.8906 64.4062
Q64.9844 64.7969 59.7188 64.7969
Q58.6875 64.7969 58.6875 66.1094
Q59.0312 67.3906 59.2188 67.8438
Q59.4219 68.3125 60.4062 68.3125
L87.3125 68.3125
Q88.2812 68.3125 88.2812 67
Q88.2344 66.75 88.0781 66.1406
Q87.9375 65.5312 87.6719 65.1562
Q87.4062 64.7969 87.0156 64.7969
Q80.9062 64.7969 78.5156 64.1094
Q77.2031 63.6719 76.6094 61.375
L62.8906 6.5
Q62.7031 5.51562 62.7031 5.07812
Q62.7031 4.04688 63.9219 3.90625
Q65.8281 3.51562 71.0938 3.51562
Q72.125 3.51562 72.125 2.20312
Q71.8281 1.03125 71.5312 0.515625
Q71.2344 0 70.4062 0
L43.5 0
Q42.4844 0 42.4844 1.3125
Q42.6719 2.04688 42.7656 2.39062
Q42.875 2.73438 43.1406 3.125
Q43.4062 3.51562 43.7969 3.51562
Q49.9062 3.51562 52.2969 4.20312
Q53.6094 4.64062 54.2031 6.89062
L60.8906 33.7969
L30.9062 33.7969
L24.125 6.5
Q23.875 5.28125 23.875 5.07812
Q23.875 4.04688 25.0938 3.90625
Q27 3.51562 32.3281 3.51562
Q33.2969 3.51562 33.2969 2.20312
Q32.9531 0.875 32.7344 0.4375
Q32.5156 0 31.5938 0
z
" id="Cmmi10-48"/>
      <path d="
M8.5 21.5781
L8.5 54.6875
L17.4844 54.6875
L17.4844 21.9219
Q17.4844 14.1562 20.5 10.2656
Q23.5312 6.39062 29.5938 6.39062
Q36.8594 6.39062 41.0781 11.0312
Q45.3125 15.6719 45.3125 23.6875
L45.3125 54.6875
L54.2969 54.6875
L54.2969 0
L45.3125 0
L45.3125 8.40625
Q42.0469 3.42188 37.7188 1
Q33.4062 -1.42188 27.6875 -1.42188
Q18.2656 -1.42188 13.375 4.4375
Q8.5 10.2969 8.5 21.5781" id="BitstreamVeraSans-Roman-75"/>
      <path d="
M41.1094 46.2969
Q39.5938 47.1719 37.8125 47.5781
Q36.0312 48 33.8906 48
Q26.2656 48 22.1875 43.0469
Q18.1094 38.0938 18.1094 28.8125
L18.1094 0
L9.07812 0
L9.07812 54.6875
L18.1094 54.6875
L18.1094 46.1875
Q20.9531 51.1719 25.4844 53.5781
Q30.0312 56 36.5312 56
Q37.4531 56 38.5781 55.875
Q39.7031 55.7656 41.0625 55.5156
z
" id="BitstreamVeraSans-Roman-72"/>
      <path d="
M48.7812 52.5938
L48.7812 44.1875
Q44.9688 46.2969 41.1406 47.3438
Q37.3125 48.3906 33.4062 48.3906
Q24.6562 48.3906 19.8125 42.8438
Q14.9844 37.3125 14.9844 27.2969
Q14.9844 17.2812 19.8125 11.7344
Q24.6562 6.20312 33.4062 6.20312
Q37.3125 6.20312 41.1406 7.25
Q44.9688 8.29688 48.7812 10.4062
L48.7812 2.09375
Q45.0156 0.34375 40.9844 -0.53125
Q36.9688 -1.42188 32.4219 -1.42188
Q20.0625 -1.42188 12.7812 6.34375
Q5.51562 14.1094 5.51562 27.2969
Q5.51562 40.6719 12.8594 48.3281
Q20.2188 56 33.0156 56
Q37.1562 56 41.1094 55.1406
Q45.0625 54.2969 48.7812 52.5938" id="BitstreamVeraSans-Roman-63"/>
      <path d="
M14.7969 27.2969
Q14.7969 17.3906 18.875 11.75
Q22.9531 6.10938 30.0781 6.10938
Q37.2031 6.10938 41.2969 11.75
Q45.4062 17.3906 45.4062 27.2969
Q45.4062 37.2031 41.2969 42.8438
Q37.2031 48.4844 30.0781 48.4844
Q22.9531 48.4844 18.875 42.8438
Q14.7969 37.2031 14.7969 27.2969
M45.4062 8.20312
Q42.5781 3.32812 38.25 0.953125
Q33.9375 -1.42188 27.875 -1.42188
Q17.9688 -1.42188 11.7344 6.48438
Q5.51562 14.4062 5.51562 27.2969
Q5.51562 40.1875 11.7344 48.0938
Q17.9688 56 27.875 56
Q33.9375 56 38.25 53.625
Q42.5781 51.2656 45.4062 46.3906
L45.4062 54.6875
L54.3906 54.6875
L54.3906 -20.7969
L45.4062 -20.7969
z
" id="BitstreamVeraSans-Roman-71"/>
     </defs>
     <g transform="translate(175.32 416.0)scale(0.12 -0.12)">
      <use transform="translate(0.0 0.015625)" xlink:href="#BitstreamVeraSans-Roman-46"/>
      <use transform="translate(57.51953125 0.015625)" xlink:href="#BitstreamVeraSans-Roman-72"/>
      <use transform="translate(98.6328125 0.015625)" xlink:href="#BitstreamVeraSans-Roman-65"/>
      <use transform="translate(160.15625 0.015625)" xlink:href="#BitstreamVeraSans-Roman-71"/>
      <use transform="translate(223.6328125 0.015625)" xlink:href="#BitstreamVeraSans-Roman-75"/>
      <use transform="translate(287.01171875 0.015625)" xlink:href="#BitstreamVeraSans-Roman-65"/>
      <use transform="translate(348.53515625 0.015625)" xlink:href="#BitstreamVeraSans-Roman-6e"/>
      <use transform="translate(411.9140625 0.015625)" xlink:href="#BitstreamVeraSans-Roman-63"/>
      <use transform="translate(466.89453125 0.015625)" xlink:href="#BitstreamVeraSans-Roman-65"/>
      <use transform="translate(528.41796875 0.015625)" xlink:href="#BitstreamVeraSans-Roman-20"/>
      <use transform="translate(560.205078125 0.015625)" xlink:href="#BitstreamVeraSans-Roman-5b"/>
      <use transform="translate(599.21875 0.015625)" xlink:href="#Cmmi10-48"/>
      <use transform="translate(682.32421875 -25.49375)scale(0.7)" xlink:href="#Cmmi10-7a"/>
      <use transform="translate(728.80859375 0.015625)" xlink:href="#BitstreamVeraSans-Roman-5d"/>
     </g>
    </g>
   </g>
   <g id="matplotlib.axis_2">
    <g id="ytick_1">
     <g id="line2d_66">
      <path clip-path="url(#p5c58de3997)" d="
M54 387.18
L388.8 387.18" style="fill:none;opacity:0.75;stroke:#708090;stroke-dasharray:1.000000,3.000000;stroke-dashoffset:0.0;stroke-width:0.5;"/>
     </g>
     <g id="line2d_67">
      <defs>
       <path d="
M0 0
L4 0" id="m728421d6d4" style="stroke:#000000;stroke-width:0.5;"/>
      </defs>
      <g>
       <use style="stroke:#000000;stroke-width:0.5;" x="54.0" xlink:href="#m728421d6d4" y="387.18"/>
      </g>
     </g>
     <g id="line2d_68">
      <defs>
       <path d="
M0 0
L-4 0" id="mcb0005524f" style="stroke:#000000;stroke-width:0.5;"/>
      </defs>
      <g>
       <use style="stroke:#000000;stroke-width:0.5;" x="388.8" xlink:href="#mcb0005524f" y="387.18"/>
      </g>
     </g>
     <g id="text_6">
      <!-- $\mathdefault{10^{-18}}$ -->
      <defs>
       <path d="
M31.7812 34.625
Q24.75 34.625 20.7188 30.8594
Q16.7031 27.0938 16.7031 20.5156
Q16.7031 13.9219 20.7188 10.1562
Q24.75 6.39062 31.7812 6.39062
Q38.8125 6.39062 42.8594 10.1719
Q46.9219 13.9688 46.9219 20.5156
Q46.9219 27.0938 42.8906 30.8594
Q38.875 34.625 31.7812 34.625
M21.9219 38.8125
Q15.5781 40.375 12.0312 44.7188
Q8.5 49.0781 8.5 55.3281
Q8.5 64.0625 14.7188 69.1406
Q20.9531 74.2188 31.7812 74.2188
Q42.6719 74.2188 48.875 69.1406
Q55.0781 64.0625 55.0781 55.3281
Q55.0781 49.0781 51.5312 44.7188
Q48 40.375 41.7031 38.8125
Q48.8281 37.1562 52.7969 32.3125
Q56.7812 27.4844 56.7812 20.5156
Q56.7812 9.90625 50.3125 4.23438
Q43.8438 -1.42188 31.7812 -1.42188
Q19.7344 -1.42188 13.25 4.23438
Q6.78125 9.90625 6.78125 20.5156
Q6.78125 27.4844 10.7812 32.3125
Q14.7969 37.1562 21.9219 38.8125
M18.3125 54.3906
Q18.3125 48.7344 21.8438 45.5625
Q25.3906 42.3906 31.7812 42.3906
Q38.1406 42.3906 41.7188 45.5625
Q45.3125 48.7344 45.3125 54.3906
Q45.3125 60.0625 41.7188 63.2344
Q38.1406 66.4062 31.7812 66.4062
Q25.3906 66.4062 21.8438 63.2344
Q18.3125 60.0625 18.3125 54.3906" id="BitstreamVeraSans-Roman-38"/>
       <path d="
M4.89062 31.3906
L31.2031 31.3906
L31.2031 23.3906
L4.89062 23.3906
z
" id="BitstreamVeraSans-Roman-2d"/>
      </defs>
      <g transform="translate(23.7 390.4503125)scale(0.1 -0.1)">
       <use transform="translate(0.0 0.546875)" xlink:href="#BitstreamVeraSans-Roman-31"/>
       <use transform="translate(63.623046875 0.546875)" xlink:href="#BitstreamVeraSans-Roman-30"/>
       <use transform="translate(127.24609375 53.046875)scale(0.7)" xlink:href="#BitstreamVeraSans-Roman-2d"/>
       <use transform="translate(152.504882812 53.046875)scale(0.7)" xlink:href="#BitstreamVeraSans-Roman-31"/>
       <use transform="translate(197.041015625 53.046875)scale(0.7)" xlink:href="#BitstreamVeraSans-Roman-38"/>
      </g>
     </g>
    </g>
    <g id="ytick_2">
     <g id="line2d_69">
      <path clip-path="url(#p5c58de3997)" d="
M54 338.014
L388.8 338.014" style="fill:none;opacity:0.75;stroke:#708090;stroke-dasharray:1.000000,3.000000;stroke-dashoffset:0.0;stroke-width:0.5;"/>
     </g>
     <g id="line2d_70">
      <g>
       <use style="stroke:#000000;stroke-width:0.5;" x="54.0" xlink:href="#m728421d6d4" y="338.014285714"/>
      </g>
     </g>
     <g id="line2d_71">
      <g>
       <use style="stroke:#000000;stroke-width:0.5;" x="388.8" xlink:href="#mcb0005524f" y="338.014285714"/>
      </g>
     </g>
     <g id="text_7">
      <!-- $\mathdefault{10^{-17}}$ -->
      <defs>
       <path d="
M8.20312 72.9062
L55.0781 72.9062
L55.0781 68.7031
L28.6094 0
L18.3125 0
L43.2188 64.5938
L8.20312 64.5938
z
" id="BitstreamVeraSans-Roman-37"/>
      </defs>
      <g transform="translate(23.7 341.234598214)scale(0.1 -0.1)">
       <use transform="translate(0.0 0.465625)" xlink:href="#BitstreamVeraSans-Roman-31"/>
       <use transform="translate(63.623046875 0.465625)" xlink:href="#BitstreamVeraSans-Roman-30"/>
       <use transform="translate(127.24609375 52.965625)scale(0.7)" xlink:href="#BitstreamVeraSans-Roman-2d"/>
       <use transform="translate(152.504882812 52.965625)scale(0.7)" xlink:href="#BitstreamVeraSans-Roman-31"/>
       <use transform="translate(197.041015625 52.965625)scale(0.7)" xlink:href="#BitstreamVeraSans-Roman-37"/>
      </g>
     </g>
    </g>
    <g id="ytick_3">
     <g id="line2d_72">
      <path clip-path="url(#p5c58de3997)" d="
M54 288.849
L388.8 288.849" style="fill:none;opacity:0.75;stroke:#708090;stroke-dasharray:1.000000,3.000000;stroke-dashoffset:0.0;stroke-width:0.5;"/>
     </g>
     <g id="line2d_73">
      <g>
       <use style="stroke:#000000;stroke-width:0.5;" x="54.0" xlink:href="#m728421d6d4" y="288.848571429"/>
      </g>
     </g>
     <g id="line2d_74">
      <g>
       <use style="stroke:#000000;stroke-width:0.5;" x="388.8" xlink:href="#mcb0005524f" y="288.848571429"/>
      </g>
     </g>
     <g id="text_8">
      <!-- $\mathdefault{10^{-16}}$ -->
      <defs>
       <path d="
M33.0156 40.375
Q26.375 40.375 22.4844 35.8281
Q18.6094 31.2969 18.6094 23.3906
Q18.6094 15.5312 22.4844 10.9531
Q26.375 6.39062 33.0156 6.39062
Q39.6562 6.39062 43.5312 10.9531
Q47.4062 15.5312 47.4062 23.3906
Q47.4062 31.2969 43.5312 35.8281
Q39.6562 40.375 33.0156 40.375
M52.5938 71.2969
L52.5938 62.3125
Q48.875 64.0625 45.0938 64.9844
Q41.3125 65.9219 37.5938 65.9219
Q27.8281 65.9219 22.6719 59.3281
Q17.5312 52.7344 16.7969 39.4062
Q19.6719 43.6562 24.0156 45.9219
Q28.375 48.1875 33.5938 48.1875
Q44.5781 48.1875 50.9531 41.5156
Q57.3281 34.8594 57.3281 23.3906
Q57.3281 12.1562 50.6875 5.35938
Q44.0469 -1.42188 33.0156 -1.42188
Q20.3594 -1.42188 13.6719 8.26562
Q6.98438 17.9688 6.98438 36.375
Q6.98438 53.6562 15.1875 63.9375
Q23.3906 74.2188 37.2031 74.2188
Q40.9219 74.2188 44.7031 73.4844
Q48.4844 72.75 52.5938 71.2969" id="BitstreamVeraSans-Roman-36"/>
      </defs>
      <g transform="translate(23.7 292.118883929)scale(0.1 -0.1)">
       <use transform="translate(0.0 0.546875)" xlink:href="#BitstreamVeraSans-Roman-31"/>
       <use transform="translate(63.623046875 0.546875)" xlink:href="#BitstreamVeraSans-Roman-30"/>
       <use transform="translate(127.24609375 53.046875)scale(0.7)" xlink:href="#BitstreamVeraSans-Roman-2d"/>
       <use transform="translate(152.504882812 53.046875)scale(0.7)" xlink:href="#BitstreamVeraSans-Roman-31"/>
       <use transform="translate(197.041015625 53.046875)scale(0.7)" xlink:href="#BitstreamVeraSans-Roman-36"/>
      </g>
     </g>
    </g>
    <g id="ytick_4">
     <g id="line2d_75">
      <path clip-path="url(#p5c58de3997)" d="
M54 239.683
L388.8 239.683" style="fill:none;opacity:0.75;stroke:#708090;stroke-dasharray:1.000000,3.000000;stroke-dashoffset:0.0;stroke-width:0.5;"/>
     </g>
     <g id="line2d_76">
      <g>
       <use style="stroke:#000000;stroke-width:0.5;" x="54.0" xlink:href="#m728421d6d4" y="239.682857143"/>
      </g>
     </g>
     <g id="line2d_77">
      <g>
       <use style="stroke:#000000;stroke-width:0.5;" x="388.8" xlink:href="#mcb0005524f" y="239.682857143"/>
      </g>
     </g>
     <g id="text_9">
      <!-- $\mathdefault{10^{-15}}$ -->
      <defs>
       <path d="
M10.7969 72.9062
L49.5156 72.9062
L49.5156 64.5938
L19.8281 64.5938
L19.8281 46.7344
Q21.9688 47.4688 24.1094 47.8281
Q26.2656 48.1875 28.4219 48.1875
Q40.625 48.1875 47.75 41.5
Q54.8906 34.8125 54.8906 23.3906
Q54.8906 11.625 47.5625 5.09375
Q40.2344 -1.42188 26.9062 -1.42188
Q22.3125 -1.42188 17.5469 -0.640625
Q12.7969 0.140625 7.71875 1.70312
L7.71875 11.625
Q12.1094 9.23438 16.7969 8.0625
Q21.4844 6.89062 26.7031 6.89062
Q35.1562 6.89062 40.0781 11.3281
Q45.0156 15.7656 45.0156 23.3906
Q45.0156 31 40.0781 35.4375
Q35.1562 39.8906 26.7031 39.8906
Q22.75 39.8906 18.8125 39.0156
Q14.8906 38.1406 10.7969 36.2812
z
" id="BitstreamVeraSans-Roman-35"/>
      </defs>
      <g transform="translate(23.7 242.903169643)scale(0.1 -0.1)">
       <use transform="translate(0.0 0.465625)" xlink:href="#BitstreamVeraSans-Roman-31"/>
       <use transform="translate(63.623046875 0.465625)" xlink:href="#BitstreamVeraSans-Roman-30"/>
       <use transform="translate(127.24609375 52.965625)scale(0.7)" xlink:href="#BitstreamVeraSans-Roman-2d"/>
       <use transform="translate(152.504882812 52.965625)scale(0.7)" xlink:href="#BitstreamVeraSans-Roman-31"/>
       <use transform="translate(197.041015625 52.965625)scale(0.7)" xlink:href="#BitstreamVeraSans-Roman-35"/>
      </g>
     </g>
    </g>
    <g id="ytick_5">
     <g id="line2d_78">
      <path clip-path="url(#p5c58de3997)" d="
M54 190.517
L388.8 190.517" style="fill:none;opacity:0.75;stroke:#708090;stroke-dasharray:1.000000,3.000000;stroke-dashoffset:0.0;stroke-width:0.5;"/>
     </g>
     <g id="line2d_79">
      <g>
       <use style="stroke:#000000;stroke-width:0.5;" x="54.0" xlink:href="#m728421d6d4" y="190.517142857"/>
      </g>
     </g>
     <g id="line2d_80">
      <g>
       <use style="stroke:#000000;stroke-width:0.5;" x="388.8" xlink:href="#mcb0005524f" y="190.517142857"/>
      </g>
     </g>
     <g id="text_10">
      <!-- $\mathdefault{10^{-14}}$ -->
      <defs>
       <path d="
M37.7969 64.3125
L12.8906 25.3906
L37.7969 25.3906
z

M35.2031 72.9062
L47.6094 72.9062
L47.6094 25.3906
L58.0156 25.3906
L58.0156 17.1875
L47.6094 17.1875
L47.6094 0
L37.7969 0
L37.7969 17.1875
L4.89062 17.1875
L4.89062 26.7031
z
" id="BitstreamVeraSans-Roman-34"/>
      </defs>
      <g transform="translate(23.7 193.737455357)scale(0.1 -0.1)">
       <use transform="translate(0.0 0.465625)" xlink:href="#BitstreamVeraSans-Roman-31"/>
       <use transform="translate(63.623046875 0.465625)" xlink:href="#BitstreamVeraSans-Roman-30"/>
       <use transform="translate(127.24609375 52.965625)scale(0.7)" xlink:href="#BitstreamVeraSans-Roman-2d"/>
       <use transform="translate(152.504882812 52.965625)scale(0.7)" xlink:href="#BitstreamVeraSans-Roman-31"/>
       <use transform="translate(197.041015625 52.965625)scale(0.7)" xlink:href="#BitstreamVeraSans-Roman-34"/>
      </g>
     </g>
    </g>
    <g id="ytick_6">
     <g id="line2d_81">
      <path clip-path="url(#p5c58de3997)" d="
M54 141.351
L388.8 141.351" style="fill:none;opacity:0.75;stroke:#708090;stroke-dasharray:1.000000,3.000000;stroke-dashoffset:0.0;stroke-width:0.5;"/>
     </g>
     <g id="line2d_82">
      <g>
       <use style="stroke:#000000;stroke-width:0.5;" x="54.0" xlink:href="#m728421d6d4" y="141.351428571"/>
      </g>
     </g>
     <g id="line2d_83">
      <g>
       <use style="stroke:#000000;stroke-width:0.5;" x="388.8" xlink:href="#mcb0005524f" y="141.351428571"/>
      </g>
     </g>
     <g id="text_11">
      <!-- $\mathdefault{10^{-13}}$ -->
      <g transform="translate(23.7 144.621741071)scale(0.1 -0.1)">
       <use transform="translate(0.0 0.546875)" xlink:href="#BitstreamVeraSans-Roman-31"/>
       <use transform="translate(63.623046875 0.546875)" xlink:href="#BitstreamVeraSans-Roman-30"/>
       <use transform="translate(127.24609375 53.046875)scale(0.7)" xlink:href="#BitstreamVeraSans-Roman-2d"/>
       <use transform="translate(152.504882812 53.046875)scale(0.7)" xlink:href="#BitstreamVeraSans-Roman-31"/>
       <use transform="translate(197.041015625 53.046875)scale(0.7)" xlink:href="#BitstreamVeraSans-Roman-33"/>
      </g>
     </g>
    </g>
    <g id="ytick_7">
     <g id="line2d_84">
      <path clip-path="url(#p5c58de3997)" d="
M54 92.1857
L388.8 92.1857" style="fill:none;opacity:0.75;stroke:#708090;stroke-dasharray:1.000000,3.000000;stroke-dashoffset:0.0;stroke-width:0.5;"/>
     </g>
     <g id="line2d_85">
      <g>
       <use style="stroke:#000000;stroke-width:0.5;" x="54.0" xlink:href="#m728421d6d4" y="92.1857142857"/>
      </g>
     </g>
     <g id="line2d_86">
      <g>
       <use style="stroke:#000000;stroke-width:0.5;" x="388.8" xlink:href="#mcb0005524f" y="92.1857142857"/>
      </g>
     </g>
     <g id="text_12">
      <!-- $\mathdefault{10^{-12}}$ -->
      <g transform="translate(23.7 95.4560267857)scale(0.1 -0.1)">
       <use transform="translate(0.0 0.546875)" xlink:href="#BitstreamVeraSans-Roman-31"/>
       <use transform="translate(63.623046875 0.546875)" xlink:href="#BitstreamVeraSans-Roman-30"/>
       <use transform="translate(127.24609375 53.046875)scale(0.7)" xlink:href="#BitstreamVeraSans-Roman-2d"/>
       <use transform="translate(152.504882812 53.046875)scale(0.7)" xlink:href="#BitstreamVeraSans-Roman-31"/>
       <use transform="translate(197.041015625 53.046875)scale(0.7)" xlink:href="#BitstreamVeraSans-Roman-32"/>
      </g>
     </g>
    </g>
    <g id="ytick_8">
     <g id="line2d_87">
      <path clip-path="url(#p5c58de3997)" d="
M54 43.02
L388.8 43.02" style="fill:none;opacity:0.75;stroke:#708090;stroke-dasharray:1.000000,3.000000;stroke-dashoffset:0.0;stroke-width:0.5;"/>
     </g>
     <g id="line2d_88">
      <g>
       <use style="stroke:#000000;stroke-width:0.5;" x="54.0" xlink:href="#m728421d6d4" y="43.02"/>
      </g>
     </g>
     <g id="line2d_89">
      <g>
       <use style="stroke:#000000;stroke-width:0.5;" x="388.8" xlink:href="#mcb0005524f" y="43.02"/>
      </g>
     </g>
     <g id="text_13">
      <!-- $\mathdefault{10^{-11}}$ -->
      <g transform="translate(23.7 46.2403125)scale(0.1 -0.1)">
       <use transform="translate(0.0 0.465625)" xlink:href="#BitstreamVeraSans-Roman-31"/>
       <use transform="translate(63.623046875 0.465625)" xlink:href="#BitstreamVeraSans-Roman-30"/>
       <use transform="translate(127.24609375 52.965625)scale(0.7)" xlink:href="#BitstreamVeraSans-Roman-2d"/>
       <use transform="translate(152.504882812 52.965625)scale(0.7)" xlink:href="#BitstreamVeraSans-Roman-31"/>
       <use transform="translate(197.041015625 52.965625)scale(0.7)" xlink:href="#BitstreamVeraSans-Roman-31"/>
      </g>
     </g>
    </g>
    <g id="ytick_9">
     <g id="line2d_90">
      <defs>
       <path d="
M0 0
L2 0" id="mf0c55a9a47" style="stroke:#000000;stroke-width:0.5;"/>
      </defs>
      <g>
       <use style="stroke:#000000;stroke-width:0.5;" x="54.0" xlink:href="#mf0c55a9a47" y="372.379645242"/>
      </g>
     </g>
     <g id="line2d_91">
      <defs>
       <path d="
M0 0
L-2 0" id="ma4f294b3af" style="stroke:#000000;stroke-width:0.5;"/>
      </defs>
      <g>
       <use style="stroke:#000000;stroke-width:0.5;" x="388.8" xlink:href="#ma4f294b3af" y="372.379645242"/>
      </g>
     </g>
    </g>
    <g id="ytick_10">
     <g id="line2d_92">
      <g>
       <use style="stroke:#000000;stroke-width:0.5;" x="54.0" xlink:href="#mf0c55a9a47" y="363.721992711"/>
      </g>
     </g>
     <g id="line2d_93">
      <g>
       <use style="stroke:#000000;stroke-width:0.5;" x="388.8" xlink:href="#ma4f294b3af" y="363.721992711"/>
      </g>
     </g>
    </g>
    <g id="ytick_11">
     <g id="line2d_94">
      <g>
       <use style="stroke:#000000;stroke-width:0.5;" x="54.0" xlink:href="#mf0c55a9a47" y="357.579290484"/>
      </g>
     </g>
     <g id="line2d_95">
      <g>
       <use style="stroke:#000000;stroke-width:0.5;" x="388.8" xlink:href="#ma4f294b3af" y="357.579290484"/>
      </g>
     </g>
    </g>
    <g id="ytick_12">
     <g id="line2d_96">
      <g>
       <use style="stroke:#000000;stroke-width:0.5;" x="54.0" xlink:href="#mf0c55a9a47" y="352.814640473"/>
      </g>
     </g>
     <g id="line2d_97">
      <g>
       <use style="stroke:#000000;stroke-width:0.5;" x="388.8" xlink:href="#ma4f294b3af" y="352.814640473"/>
      </g>
     </g>
    </g>
    <g id="ytick_13">
     <g id="line2d_98">
      <g>
       <use style="stroke:#000000;stroke-width:0.5;" x="54.0" xlink:href="#mf0c55a9a47" y="348.921637953"/>
      </g>
     </g>
     <g id="line2d_99">
      <g>
       <use style="stroke:#000000;stroke-width:0.5;" x="388.8" xlink:href="#ma4f294b3af" y="348.921637953"/>
      </g>
     </g>
    </g>
    <g id="ytick_14">
     <g id="line2d_100">
      <g>
       <use style="stroke:#000000;stroke-width:0.5;" x="54.0" xlink:href="#mf0c55a9a47" y="345.630151221"/>
      </g>
     </g>
     <g id="line2d_101">
      <g>
       <use style="stroke:#000000;stroke-width:0.5;" x="388.8" xlink:href="#ma4f294b3af" y="345.630151221"/>
      </g>
     </g>
    </g>
    <g id="ytick_15">
     <g id="line2d_102">
      <g>
       <use style="stroke:#000000;stroke-width:0.5;" x="54.0" xlink:href="#mf0c55a9a47" y="342.778935725"/>
      </g>
     </g>
     <g id="line2d_103">
      <g>
       <use style="stroke:#000000;stroke-width:0.5;" x="388.8" xlink:href="#ma4f294b3af" y="342.778935725"/>
      </g>
     </g>
    </g>
    <g id="ytick_16">
     <g id="line2d_104">
      <g>
       <use style="stroke:#000000;stroke-width:0.5;" x="54.0" xlink:href="#mf0c55a9a47" y="340.263985422"/>
      </g>
     </g>
     <g id="line2d_105">
      <g>
       <use style="stroke:#000000;stroke-width:0.5;" x="388.8" xlink:href="#ma4f294b3af" y="340.263985422"/>
      </g>
     </g>
    </g>
    <g id="ytick_17">
     <g id="line2d_106">
      <g>
       <use style="stroke:#000000;stroke-width:0.5;" x="54.0" xlink:href="#mf0c55a9a47" y="323.213930956"/>
      </g>
     </g>
     <g id="line2d_107">
      <g>
       <use style="stroke:#000000;stroke-width:0.5;" x="388.8" xlink:href="#ma4f294b3af" y="323.213930956"/>
      </g>
     </g>
    </g>
    <g id="ytick_18">
     <g id="line2d_108">
      <g>
       <use style="stroke:#000000;stroke-width:0.5;" x="54.0" xlink:href="#mf0c55a9a47" y="314.556278425"/>
      </g>
     </g>
     <g id="line2d_109">
      <g>
       <use style="stroke:#000000;stroke-width:0.5;" x="388.8" xlink:href="#ma4f294b3af" y="314.556278425"/>
      </g>
     </g>
    </g>
    <g id="ytick_19">
     <g id="line2d_110">
      <g>
       <use style="stroke:#000000;stroke-width:0.5;" x="54.0" xlink:href="#mf0c55a9a47" y="308.413576198"/>
      </g>
     </g>
     <g id="line2d_111">
      <g>
       <use style="stroke:#000000;stroke-width:0.5;" x="388.8" xlink:href="#ma4f294b3af" y="308.413576198"/>
      </g>
     </g>
    </g>
    <g id="ytick_20">
     <g id="line2d_112">
      <g>
       <use style="stroke:#000000;stroke-width:0.5;" x="54.0" xlink:href="#mf0c55a9a47" y="303.648926187"/>
      </g>
     </g>
     <g id="line2d_113">
      <g>
       <use style="stroke:#000000;stroke-width:0.5;" x="388.8" xlink:href="#ma4f294b3af" y="303.648926187"/>
      </g>
     </g>
    </g>
    <g id="ytick_21">
     <g id="line2d_114">
      <g>
       <use style="stroke:#000000;stroke-width:0.5;" x="54.0" xlink:href="#mf0c55a9a47" y="299.755923667"/>
      </g>
     </g>
     <g id="line2d_115">
      <g>
       <use style="stroke:#000000;stroke-width:0.5;" x="388.8" xlink:href="#ma4f294b3af" y="299.755923667"/>
      </g>
     </g>
    </g>
    <g id="ytick_22">
     <g id="line2d_116">
      <g>
       <use style="stroke:#000000;stroke-width:0.5;" x="54.0" xlink:href="#mf0c55a9a47" y="296.464436936"/>
      </g>
     </g>
     <g id="line2d_117">
      <g>
       <use style="stroke:#000000;stroke-width:0.5;" x="388.8" xlink:href="#ma4f294b3af" y="296.464436936"/>
      </g>
     </g>
    </g>
    <g id="ytick_23">
     <g id="line2d_118">
      <g>
       <use style="stroke:#000000;stroke-width:0.5;" x="54.0" xlink:href="#mf0c55a9a47" y="293.61322144"/>
      </g>
     </g>
     <g id="line2d_119">
      <g>
       <use style="stroke:#000000;stroke-width:0.5;" x="388.8" xlink:href="#ma4f294b3af" y="293.61322144"/>
      </g>
     </g>
    </g>
    <g id="ytick_24">
     <g id="line2d_120">
      <g>
       <use style="stroke:#000000;stroke-width:0.5;" x="54.0" xlink:href="#mf0c55a9a47" y="291.098271136"/>
      </g>
     </g>
     <g id="line2d_121">
      <g>
       <use style="stroke:#000000;stroke-width:0.5;" x="388.8" xlink:href="#ma4f294b3af" y="291.098271136"/>
      </g>
     </g>
    </g>
    <g id="ytick_25">
     <g id="line2d_122">
      <g>
       <use style="stroke:#000000;stroke-width:0.5;" x="54.0" xlink:href="#mf0c55a9a47" y="274.04821667"/>
      </g>
     </g>
     <g id="line2d_123">
      <g>
       <use style="stroke:#000000;stroke-width:0.5;" x="388.8" xlink:href="#ma4f294b3af" y="274.04821667"/>
      </g>
     </g>
    </g>
    <g id="ytick_26">
     <g id="line2d_124">
      <g>
       <use style="stroke:#000000;stroke-width:0.5;" x="54.0" xlink:href="#mf0c55a9a47" y="265.390564139"/>
      </g>
     </g>
     <g id="line2d_125">
      <g>
       <use style="stroke:#000000;stroke-width:0.5;" x="388.8" xlink:href="#ma4f294b3af" y="265.390564139"/>
      </g>
     </g>
    </g>
    <g id="ytick_27">
     <g id="line2d_126">
      <g>
       <use style="stroke:#000000;stroke-width:0.5;" x="54.0" xlink:href="#mf0c55a9a47" y="259.247861912"/>
      </g>
     </g>
     <g id="line2d_127">
      <g>
       <use style="stroke:#000000;stroke-width:0.5;" x="388.8" xlink:href="#ma4f294b3af" y="259.247861912"/>
      </g>
     </g>
    </g>
    <g id="ytick_28">
     <g id="line2d_128">
      <g>
       <use style="stroke:#000000;stroke-width:0.5;" x="54.0" xlink:href="#mf0c55a9a47" y="254.483211901"/>
      </g>
     </g>
     <g id="line2d_129">
      <g>
       <use style="stroke:#000000;stroke-width:0.5;" x="388.8" xlink:href="#ma4f294b3af" y="254.483211901"/>
      </g>
     </g>
    </g>
    <g id="ytick_29">
     <g id="line2d_130">
      <g>
       <use style="stroke:#000000;stroke-width:0.5;" x="54.0" xlink:href="#mf0c55a9a47" y="250.590209381"/>
      </g>
     </g>
     <g id="line2d_131">
      <g>
       <use style="stroke:#000000;stroke-width:0.5;" x="388.8" xlink:href="#ma4f294b3af" y="250.590209381"/>
      </g>
     </g>
    </g>
    <g id="ytick_30">
     <g id="line2d_132">
      <g>
       <use style="stroke:#000000;stroke-width:0.5;" x="54.0" xlink:href="#mf0c55a9a47" y="247.29872265"/>
      </g>
     </g>
     <g id="line2d_133">
      <g>
       <use style="stroke:#000000;stroke-width:0.5;" x="388.8" xlink:href="#ma4f294b3af" y="247.29872265"/>
      </g>
     </g>
    </g>
    <g id="ytick_31">
     <g id="line2d_134">
      <g>
       <use style="stroke:#000000;stroke-width:0.5;" x="54.0" xlink:href="#mf0c55a9a47" y="244.447507154"/>
      </g>
     </g>
     <g id="line2d_135">
      <g>
       <use style="stroke:#000000;stroke-width:0.5;" x="388.8" xlink:href="#ma4f294b3af" y="244.447507154"/>
      </g>
     </g>
    </g>
    <g id="ytick_32">
     <g id="line2d_136">
      <g>
       <use style="stroke:#000000;stroke-width:0.5;" x="54.0" xlink:href="#mf0c55a9a47" y="241.93255685"/>
      </g>
     </g>
     <g id="line2d_137">
      <g>
       <use style="stroke:#000000;stroke-width:0.5;" x="388.8" xlink:href="#ma4f294b3af" y="241.93255685"/>
      </g>
     </g>
    </g>
    <g id="ytick_33">
     <g id="line2d_138">
      <g>
       <use style="stroke:#000000;stroke-width:0.5;" x="54.0" xlink:href="#mf0c55a9a47" y="224.882502385"/>
      </g>
     </g>
     <g id="line2d_139">
      <g>
       <use style="stroke:#000000;stroke-width:0.5;" x="388.8" xlink:href="#ma4f294b3af" y="224.882502385"/>
      </g>
     </g>
    </g>
    <g id="ytick_34">
     <g id="line2d_140">
      <g>
       <use style="stroke:#000000;stroke-width:0.5;" x="54.0" xlink:href="#mf0c55a9a47" y="216.224849854"/>
      </g>
     </g>
     <g id="line2d_141">
      <g>
       <use style="stroke:#000000;stroke-width:0.5;" x="388.8" xlink:href="#ma4f294b3af" y="216.224849854"/>
      </g>
     </g>
    </g>
    <g id="ytick_35">
     <g id="line2d_142">
      <g>
       <use style="stroke:#000000;stroke-width:0.5;" x="54.0" xlink:href="#mf0c55a9a47" y="210.082147626"/>
      </g>
     </g>
     <g id="line2d_143">
      <g>
       <use style="stroke:#000000;stroke-width:0.5;" x="388.8" xlink:href="#ma4f294b3af" y="210.082147626"/>
      </g>
     </g>
    </g>
    <g id="ytick_36">
     <g id="line2d_144">
      <g>
       <use style="stroke:#000000;stroke-width:0.5;" x="54.0" xlink:href="#mf0c55a9a47" y="205.317497615"/>
      </g>
     </g>
     <g id="line2d_145">
      <g>
       <use style="stroke:#000000;stroke-width:0.5;" x="388.8" xlink:href="#ma4f294b3af" y="205.317497615"/>
      </g>
     </g>
    </g>
    <g id="ytick_37">
     <g id="line2d_146">
      <g>
       <use style="stroke:#000000;stroke-width:0.5;" x="54.0" xlink:href="#mf0c55a9a47" y="201.424495095"/>
      </g>
     </g>
     <g id="line2d_147">
      <g>
       <use style="stroke:#000000;stroke-width:0.5;" x="388.8" xlink:href="#ma4f294b3af" y="201.424495095"/>
      </g>
     </g>
    </g>
    <g id="ytick_38">
     <g id="line2d_148">
      <g>
       <use style="stroke:#000000;stroke-width:0.5;" x="54.0" xlink:href="#mf0c55a9a47" y="198.133008364"/>
      </g>
     </g>
     <g id="line2d_149">
      <g>
       <use style="stroke:#000000;stroke-width:0.5;" x="388.8" xlink:href="#ma4f294b3af" y="198.133008364"/>
      </g>
     </g>
    </g>
    <g id="ytick_39">
     <g id="line2d_150">
      <g>
       <use style="stroke:#000000;stroke-width:0.5;" x="54.0" xlink:href="#mf0c55a9a47" y="195.281792868"/>
      </g>
     </g>
     <g id="line2d_151">
      <g>
       <use style="stroke:#000000;stroke-width:0.5;" x="388.8" xlink:href="#ma4f294b3af" y="195.281792868"/>
      </g>
     </g>
    </g>
    <g id="ytick_40">
     <g id="line2d_152">
      <g>
       <use style="stroke:#000000;stroke-width:0.5;" x="54.0" xlink:href="#mf0c55a9a47" y="192.766842564"/>
      </g>
     </g>
     <g id="line2d_153">
      <g>
       <use style="stroke:#000000;stroke-width:0.5;" x="388.8" xlink:href="#ma4f294b3af" y="192.766842564"/>
      </g>
     </g>
    </g>
    <g id="ytick_41">
     <g id="line2d_154">
      <g>
       <use style="stroke:#000000;stroke-width:0.5;" x="54.0" xlink:href="#mf0c55a9a47" y="175.716788099"/>
      </g>
     </g>
     <g id="line2d_155">
      <g>
       <use style="stroke:#000000;stroke-width:0.5;" x="388.8" xlink:href="#ma4f294b3af" y="175.716788099"/>
      </g>
     </g>
    </g>
    <g id="ytick_42">
     <g id="line2d_156">
      <g>
       <use style="stroke:#000000;stroke-width:0.5;" x="54.0" xlink:href="#mf0c55a9a47" y="167.059135568"/>
      </g>
     </g>
     <g id="line2d_157">
      <g>
       <use style="stroke:#000000;stroke-width:0.5;" x="388.8" xlink:href="#ma4f294b3af" y="167.059135568"/>
      </g>
     </g>
    </g>
    <g id="ytick_43">
     <g id="line2d_158">
      <g>
       <use style="stroke:#000000;stroke-width:0.5;" x="54.0" xlink:href="#mf0c55a9a47" y="160.916433341"/>
      </g>
     </g>
     <g id="line2d_159">
      <g>
       <use style="stroke:#000000;stroke-width:0.5;" x="388.8" xlink:href="#ma4f294b3af" y="160.916433341"/>
      </g>
     </g>
    </g>
    <g id="ytick_44">
     <g id="line2d_160">
      <g>
       <use style="stroke:#000000;stroke-width:0.5;" x="54.0" xlink:href="#mf0c55a9a47" y="156.15178333"/>
      </g>
     </g>
     <g id="line2d_161">
      <g>
       <use style="stroke:#000000;stroke-width:0.5;" x="388.8" xlink:href="#ma4f294b3af" y="156.15178333"/>
      </g>
     </g>
    </g>
    <g id="ytick_45">
     <g id="line2d_162">
      <g>
       <use style="stroke:#000000;stroke-width:0.5;" x="54.0" xlink:href="#mf0c55a9a47" y="152.25878081"/>
      </g>
     </g>
     <g id="line2d_163">
      <g>
       <use style="stroke:#000000;stroke-width:0.5;" x="388.8" xlink:href="#ma4f294b3af" y="152.25878081"/>
      </g>
     </g>
    </g>
    <g id="ytick_46">
     <g id="line2d_164">
      <g>
       <use style="stroke:#000000;stroke-width:0.5;" x="54.0" xlink:href="#mf0c55a9a47" y="148.967294078"/>
      </g>
     </g>
     <g id="line2d_165">
      <g>
       <use style="stroke:#000000;stroke-width:0.5;" x="388.8" xlink:href="#ma4f294b3af" y="148.967294078"/>
      </g>
     </g>
    </g>
    <g id="ytick_47">
     <g id="line2d_166">
      <g>
       <use style="stroke:#000000;stroke-width:0.5;" x="54.0" xlink:href="#mf0c55a9a47" y="146.116078582"/>
      </g>
     </g>
     <g id="line2d_167">
      <g>
       <use style="stroke:#000000;stroke-width:0.5;" x="388.8" xlink:href="#ma4f294b3af" y="146.116078582"/>
      </g>
     </g>
    </g>
    <g id="ytick_48">
     <g id="line2d_168">
      <g>
       <use style="stroke:#000000;stroke-width:0.5;" x="54.0" xlink:href="#mf0c55a9a47" y="143.601128279"/>
      </g>
     </g>
     <g id="line2d_169">
      <g>
       <use style="stroke:#000000;stroke-width:0.5;" x="388.8" xlink:href="#ma4f294b3af" y="143.601128279"/>
      </g>
     </g>
    </g>
    <g id="ytick_49">
     <g id="line2d_170">
      <g>
       <use style="stroke:#000000;stroke-width:0.5;" x="54.0" xlink:href="#mf0c55a9a47" y="126.551073813"/>
      </g>
     </g>
     <g id="line2d_171">
      <g>
       <use style="stroke:#000000;stroke-width:0.5;" x="388.8" xlink:href="#ma4f294b3af" y="126.551073813"/>
      </g>
     </g>
    </g>
    <g id="ytick_50">
     <g id="line2d_172">
      <g>
       <use style="stroke:#000000;stroke-width:0.5;" x="54.0" xlink:href="#mf0c55a9a47" y="117.893421282"/>
      </g>
     </g>
     <g id="line2d_173">
      <g>
       <use style="stroke:#000000;stroke-width:0.5;" x="388.8" xlink:href="#ma4f294b3af" y="117.893421282"/>
      </g>
     </g>
    </g>
    <g id="ytick_51">
     <g id="line2d_174">
      <g>
       <use style="stroke:#000000;stroke-width:0.5;" x="54.0" xlink:href="#mf0c55a9a47" y="111.750719055"/>
      </g>
     </g>
     <g id="line2d_175">
      <g>
       <use style="stroke:#000000;stroke-width:0.5;" x="388.8" xlink:href="#ma4f294b3af" y="111.750719055"/>
      </g>
     </g>
    </g>
    <g id="ytick_52">
     <g id="line2d_176">
      <g>
       <use style="stroke:#000000;stroke-width:0.5;" x="54.0" xlink:href="#mf0c55a9a47" y="106.986069044"/>
      </g>
     </g>
     <g id="line2d_177">
      <g>
       <use style="stroke:#000000;stroke-width:0.5;" x="388.8" xlink:href="#ma4f294b3af" y="106.986069044"/>
      </g>
     </g>
    </g>
    <g id="ytick_53">
     <g id="line2d_178">
      <g>
       <use style="stroke:#000000;stroke-width:0.5;" x="54.0" xlink:href="#mf0c55a9a47" y="103.093066524"/>
      </g>
     </g>
     <g id="line2d_179">
      <g>
       <use style="stroke:#000000;stroke-width:0.5;" x="388.8" xlink:href="#ma4f294b3af" y="103.093066524"/>
      </g>
     </g>
    </g>
    <g id="ytick_54">
     <g id="line2d_180">
      <g>
       <use style="stroke:#000000;stroke-width:0.5;" x="54.0" xlink:href="#mf0c55a9a47" y="99.8015797927"/>
      </g>
     </g>
     <g id="line2d_181">
      <g>
       <use style="stroke:#000000;stroke-width:0.5;" x="388.8" xlink:href="#ma4f294b3af" y="99.8015797927"/>
      </g>
     </g>
    </g>
    <g id="ytick_55">
     <g id="line2d_182">
      <g>
       <use style="stroke:#000000;stroke-width:0.5;" x="54.0" xlink:href="#mf0c55a9a47" y="96.9503642967"/>
      </g>
     </g>
     <g id="line2d_183">
      <g>
       <use style="stroke:#000000;stroke-width:0.5;" x="388.8" xlink:href="#ma4f294b3af" y="96.9503642967"/>
      </g>
     </g>
    </g>
    <g id="ytick_56">
     <g id="line2d_184">
      <g>
       <use style="stroke:#000000;stroke-width:0.5;" x="54.0" xlink:href="#mf0c55a9a47" y="94.4354139931"/>
      </g>
     </g>
     <g id="line2d_185">
      <g>
       <use style="stroke:#000000;stroke-width:0.5;" x="388.8" xlink:href="#ma4f294b3af" y="94.4354139931"/>
      </g>
     </g>
    </g>
    <g id="ytick_57">
     <g id="line2d_186">
      <g>
       <use style="stroke:#000000;stroke-width:0.5;" x="54.0" xlink:href="#mf0c55a9a47" y="77.3853595275"/>
      </g>
     </g>
     <g id="line2d_187">
      <g>
       <use style="stroke:#000000;stroke-width:0.5;" x="388.8" xlink:href="#ma4f294b3af" y="77.3853595275"/>
      </g>
     </g>
    </g>
    <g id="ytick_58">
     <g id="line2d_188">
      <g>
       <use style="stroke:#000000;stroke-width:0.5;" x="54.0" xlink:href="#mf0c55a9a47" y="68.7277069965"/>
      </g>
     </g>
     <g id="line2d_189">
      <g>
       <use style="stroke:#000000;stroke-width:0.5;" x="388.8" xlink:href="#ma4f294b3af" y="68.7277069965"/>
      </g>
     </g>
    </g>
    <g id="ytick_59">
     <g id="line2d_190">
      <g>
       <use style="stroke:#000000;stroke-width:0.5;" x="54.0" xlink:href="#mf0c55a9a47" y="62.5850047692"/>
      </g>
     </g>
     <g id="line2d_191">
      <g>
       <use style="stroke:#000000;stroke-width:0.5;" x="388.8" xlink:href="#ma4f294b3af" y="62.5850047692"/>
      </g>
     </g>
    </g>
    <g id="ytick_60">
     <g id="line2d_192">
      <g>
       <use style="stroke:#000000;stroke-width:0.5;" x="54.0" xlink:href="#mf0c55a9a47" y="57.8203547582"/>
      </g>
     </g>
     <g id="line2d_193">
      <g>
       <use style="stroke:#000000;stroke-width:0.5;" x="388.8" xlink:href="#ma4f294b3af" y="57.8203547582"/>
      </g>
     </g>
    </g>
    <g id="ytick_61">
     <g id="line2d_194">
      <g>
       <use style="stroke:#000000;stroke-width:0.5;" x="54.0" xlink:href="#mf0c55a9a47" y="53.9273522383"/>
      </g>
     </g>
     <g id="line2d_195">
      <g>
       <use style="stroke:#000000;stroke-width:0.5;" x="388.8" xlink:href="#ma4f294b3af" y="53.9273522383"/>
      </g>
     </g>
    </g>
    <g id="ytick_62">
     <g id="line2d_196">
      <g>
       <use style="stroke:#000000;stroke-width:0.5;" x="54.0" xlink:href="#mf0c55a9a47" y="50.635865507"/>
      </g>
     </g>
     <g id="line2d_197">
      <g>
       <use style="stroke:#000000;stroke-width:0.5;" x="388.8" xlink:href="#ma4f294b3af" y="50.635865507"/>
      </g>
     </g>
    </g>
    <g id="ytick_63">
     <g id="line2d_198">
      <g>
       <use style="stroke:#000000;stroke-width:0.5;" x="54.0" xlink:href="#mf0c55a9a47" y="47.784650011"/>
      </g>
     </g>
     <g id="line2d_199">
      <g>
       <use style="stroke:#000000;stroke-width:0.5;" x="388.8" xlink:href="#ma4f294b3af" y="47.784650011"/>
      </g>
     </g>
    </g>
    <g id="ytick_64">
     <g id="line2d_200">
      <g>
       <use style="stroke:#000000;stroke-width:0.5;" x="54.0" xlink:href="#mf0c55a9a47" y="45.2696997073"/>
      </g>
     </g>
     <g id="line2d_201">
      <g>
       <use style="stroke:#000000;stroke-width:0.5;" x="388.8" xlink:href="#ma4f294b3af" y="45.2696997073"/>
      </g>
     </g>
    </g>
    <g id="text_14">
     <!-- NEP [$W/\sqrt{H_z}$] -->
     <defs>
      <path d="
M42.3906 -175.984
L19.6719 -96.6875
L12.7969 -104.688
L10.9844 -102.781
L25.2969 -85.9844
L46.5781 -160.406
L98.1875 2.78125
Q98.5312 4 100 4
Q100.828 4 101.406 3.40625
Q102 2.82812 102 2
L102 1.60938
L46.2969 -174.812
Q45.7031 -175.984 44.5781 -175.984
z
" id="Cmex10-71"/>
      <path d="
M9.8125 72.9062
L23.0938 72.9062
L55.4219 11.9219
L55.4219 72.9062
L64.9844 72.9062
L64.9844 0
L51.7031 0
L19.3906 60.9844
L19.3906 0
L9.8125 0
z
" id="BitstreamVeraSans-Roman-4e"/>
      <path d="
M17.8281 -1.125
L13.1875 62.5938
Q12.8438 64.0625 10.9844 64.4219
Q9.125 64.7969 6.39062 64.7969
Q5.42188 64.7969 5.42188 66.1094
Q5.76562 67.3906 5.95312 67.8438
Q6.15625 68.3125 7.07812 68.3125
L30.9062 68.3125
Q31.8906 68.3125 31.8906 67
Q31.5 64.7969 30.6094 64.7969
Q22.6094 64.7969 22.125 62.0156
L25.6875 11.5312
L50.6875 55.0781
L50.2031 62.5938
Q49.8594 64.0625 48 64.4219
Q46.1406 64.7969 43.4062 64.7969
Q42.3906 64.7969 42.3906 66.1094
Q42.7188 67.3906 42.9062 67.8438
Q43.1094 68.3125 44.0938 68.3125
L67.9219 68.3125
Q68.8906 68.3125 68.8906 67
Q68.8438 66.75 68.7031 66.1562
Q68.5625 65.5781 68.3125 65.1875
Q68.0625 64.7969 67.5781 64.7969
Q59.5156 64.7969 59.0781 62.0156
L59.0781 61.2812
L62.7031 11.5312
L89.8906 58.9844
Q90.4844 60.0625 90.4844 61.0781
Q90.4844 63.1406 88.4688 63.9688
Q86.4688 64.7969 83.9844 64.7969
Q83.0156 64.7969 83.0156 66.1094
Q83.2031 66.8906 83.3281 67.3281
Q83.4531 67.7812 83.7656 68.0469
Q84.0781 68.3125 84.7188 68.3125
L103.812 68.3125
Q104.781 68.3125 104.781 67
Q104.734 66.75 104.578 66.1406
Q104.438 65.5312 104.172 65.1562
Q103.906 64.7969 103.516 64.7969
Q96.3906 64.7969 92.6719 58.2969
Q92.3906 58.0156 92.3906 58.0156
L58.5 -1.125
Q57.9531 -2.20312 56.7812 -2.20312
L56 -2.20312
Q54.7812 -2.20312 54.7812 -1.125
L50.9844 50.3906
L21.5781 -1.125
Q20.8438 -2.20312 19.8281 -2.20312
L19 -2.20312
Q17.8281 -2.20312 17.8281 -1.125" id="Cmmi10-57"/>
      <path d="
M19.6719 64.7969
L19.6719 37.4062
L32.0781 37.4062
Q38.9688 37.4062 42.7188 40.9688
Q46.4844 44.5312 46.4844 51.125
Q46.4844 57.6719 42.7188 61.2344
Q38.9688 64.7969 32.0781 64.7969
z

M9.8125 72.9062
L32.0781 72.9062
Q44.3438 72.9062 50.6094 67.3594
Q56.8906 61.8125 56.8906 51.125
Q56.8906 40.3281 50.6094 34.8125
Q44.3438 29.2969 32.0781 29.2969
L19.6719 29.2969
L19.6719 0
L9.8125 0
z
" id="BitstreamVeraSans-Roman-50"/>
      <path d="
M9.8125 72.9062
L55.9062 72.9062
L55.9062 64.5938
L19.6719 64.5938
L19.6719 43.0156
L54.3906 43.0156
L54.3906 34.7188
L19.6719 34.7188
L19.6719 8.29688
L56.7812 8.29688
L56.7812 0
L9.8125 0
z
" id="BitstreamVeraSans-Roman-45"/>
      <path d="
M5.60938 -23
Q5.60938 -22.7031 5.71875 -22.6094
L40.4844 73.7812
Q40.6719 74.3594 41.1562 74.6719
Q41.6562 75 42.2812 75
Q43.1719 75 43.7188 74.4531
Q44.2812 73.9219 44.2812 73
L44.2812 72.6094
L9.51562 -23.7812
Q8.9375 -25 7.625 -25
Q6.78125 -25 6.1875 -24.4062
Q5.60938 -23.8281 5.60938 -23" id="Cmmi10-3d"/>
     </defs>
     <g transform="translate(15.46 255.78)rotate(-90.0)scale(0.12 -0.12)">
      <use transform="translate(0.0 0.453125)" xlink:href="#BitstreamVeraSans-Roman-4e"/>
      <use transform="translate(74.8046875 0.453125)" xlink:href="#BitstreamVeraSans-Roman-45"/>
      <use transform="translate(137.98828125 0.453125)" xlink:href="#BitstreamVeraSans-Roman-50"/>
      <use transform="translate(198.291015625 0.453125)" xlink:href="#BitstreamVeraSans-Roman-20"/>
      <use transform="translate(230.078125 0.453125)" xlink:href="#BitstreamVeraSans-Roman-5b"/>
      <use transform="translate(269.091796875 0.453125)" xlink:href="#Cmmi10-57"/>
      <use transform="translate(363.4765625 0.453125)" xlink:href="#Cmmi10-3d"/>
      <use transform="translate(413.4765625 97.203125)scale(0.699279451341)" xlink:href="#Cmex10-71"/>
      <use transform="translate(495.8984375 0.4375)" xlink:href="#Cmmi10-48"/>
      <use transform="translate(579.00390625 -25.071875)scale(0.7)" xlink:href="#Cmmi10-7a"/>
      <use transform="translate(637.98828125 0.453125)" xlink:href="#BitstreamVeraSans-Roman-5d"/>
      <path d="
M483.398 93.5
L483.398 99.75
L637.988 99.75
L637.988 93.5
L483.398 93.5
z
"/>
     </g>
    </g>
   </g>
   <g id="legend_1">
    <g id="patch_7">
     <path d="
M58.998 126.333
L238.258 126.333
L238.258 48.018
L58.998 48.018
z
" style="fill:#ffffff;stroke:#000000;stroke-linejoin:miter;"/>
    </g>
    <g id="text_15">
     <!-- Resolution : $\sigma_E =$ 303.7 $eV$ -->
     <defs>
      <path d="
M20.125 -1.125
Q15.3281 -1.125 11.7344 1.35938
Q8.15625 3.85938 6.26562 8.07812
Q4.39062 12.3125 4.39062 17
Q4.39062 24.125 7.98438 30.3906
Q11.5781 36.6719 17.7188 40.4219
Q23.875 44.1875 30.9062 44.1875
Q35.2031 44.1875 38.4062 41.9688
Q41.6094 39.75 41.6094 35.5938
Q41.6094 29.8281 37.0156 27.0156
Q32.4219 24.2188 26.6562 23.5625
Q20.9062 22.9062 13.9219 22.9062
L13.625 22.9062
Q12.0156 16.9375 12.0156 12.7031
Q12.0156 8.25 14.0625 4.875
Q16.1094 1.51562 20.3125 1.51562
Q26.2656 1.51562 31.75 4.25
Q37.25 6.98438 40.7188 11.8125
Q41.0156 12.1094 41.5 12.1094
Q42 12.1094 42.5 11.5469
Q43.0156 10.9844 43.0156 10.5
Q43.0156 10.1094 42.8281 9.90625
Q39.1562 4.78125 32.9531 1.82812
Q26.7656 -1.125 20.125 -1.125
M14.2031 25.4844
Q20.0156 25.4844 24.9531 26.0156
Q29.8906 26.5625 33.8906 28.7344
Q37.8906 30.9062 37.8906 35.5
Q37.8906 37.3594 36.8594 38.75
Q35.8438 40.1406 34.2031 40.875
Q32.5625 41.6094 30.8125 41.6094
Q26.5625 41.6094 23.1719 39.3125
Q19.7812 37.0156 17.5781 33.3281
Q15.375 29.6406 14.2031 25.4844" id="Cmmi10-65"/>
      <path d="
M18.7031 -1.125
Q14.2656 -1.125 10.8125 1
Q7.375 3.125 5.48438 6.73438
Q3.60938 10.3594 3.60938 14.7031
Q3.60938 19.3438 5.70312 24.4688
Q7.8125 29.5938 11.4531 33.8438
Q15.0938 38.0938 19.6719 40.5938
Q24.2656 43.1094 29.1094 43.1094
L54.2969 43.1094
Q55.3281 43.1094 56.0469 42.4219
Q56.7812 41.75 56.7812 40.5781
Q56.7812 39.1094 55.7344 38.0156
Q54.6875 36.9219 53.2188 36.9219
L41.0156 36.9219
Q43.8906 32.625 43.8906 26.5156
Q43.8906 21.4844 41.9375 16.5938
Q39.9844 11.7188 36.5156 7.6875
Q33.0625 3.65625 28.4375 1.26562
Q23.8281 -1.125 18.7031 -1.125
M18.7969 1.51562
Q24.2656 1.51562 28.4844 5.78125
Q32.7188 10.0625 34.9531 16.2344
Q37.2031 22.4062 37.2031 27.6875
Q37.2031 31.9844 34.8281 34.4531
Q32.4688 36.9219 28.2188 36.9219
Q22.4062 36.9219 18.3281 33.0156
Q14.2656 29.1094 12.2344 23.1875
Q10.2031 17.2812 10.2031 11.8125
Q10.2031 7.51562 12.4688 4.51562
Q14.75 1.51562 18.7969 1.51562" id="Cmmi10-be"/>
      <path d="
M30.6094 48.3906
Q23.3906 48.3906 19.1875 42.75
Q14.9844 37.1094 14.9844 27.2969
Q14.9844 17.4844 19.1562 11.8438
Q23.3438 6.20312 30.6094 6.20312
Q37.7969 6.20312 41.9844 11.8594
Q46.1875 17.5312 46.1875 27.2969
Q46.1875 37.0156 41.9844 42.7031
Q37.7969 48.3906 30.6094 48.3906
M30.6094 56
Q42.3281 56 49.0156 48.375
Q55.7188 40.7656 55.7188 27.2969
Q55.7188 13.875 49.0156 6.21875
Q42.3281 -1.42188 30.6094 -1.42188
Q18.8438 -1.42188 12.1719 6.21875
Q5.51562 13.875 5.51562 27.2969
Q5.51562 40.7656 12.1719 48.375
Q18.8438 56 30.6094 56" id="BitstreamVeraSans-Roman-6f"/>
      <path d="
M4.6875 0
Q3.71875 0 3.71875 1.3125
Q3.76562 1.5625 3.90625 2.17188
Q4.04688 2.78125 4.3125 3.14062
Q4.59375 3.51562 4.98438 3.51562
Q11.0781 3.51562 13.4844 4.20312
Q14.7969 4.64062 15.375 6.89062
L29.1094 61.8125
Q29.2969 62.7969 29.2969 63.1875
Q29.2969 64.2656 28.0781 64.4062
Q26.2188 64.7969 20.9062 64.7969
Q19.9219 64.7969 19.9219 66.1094
Q19.9688 66.3594 20.1094 66.9688
Q20.2656 67.5781 20.5312 67.9375
Q20.7969 68.3125 21.1875 68.3125
L75.3906 68.3125
Q76.4219 68.3125 76.4219 67
L74.0312 46.2969
Q74.0312 46.0469 73.6562 45.7188
Q73.2969 45.4062 73 45.4062
L72.125 45.4062
Q71.0938 45.4062 71.0938 46.6875
Q71.6875 51.5625 71.6875 53.9062
Q71.6875 57.9062 70.3125 60.125
Q68.9531 62.3594 66.6719 63.3281
Q64.4062 64.3125 61.6406 64.5469
Q58.8906 64.7969 54.3906 64.7969
L43.0156 64.7969
Q40.2812 64.7969 39.4062 64.3281
Q38.5312 63.875 37.7969 61.375
L31.7812 37.2031
L39.5938 37.2031
Q44.6719 37.2031 47.2656 37.9062
Q49.8594 38.625 51.3594 40.8594
Q52.875 43.1094 54.1094 48
Q54.2031 48.3438 54.4688 48.6094
Q54.7344 48.875 55.0781 48.875
L56 48.875
Q56.9844 48.875 56.9844 47.6094
L50.7812 22.9062
Q50.5938 22.0156 49.8125 22.0156
L48.875 22.0156
Q47.9062 22.0156 47.9062 23.2969
Q48.875 27.2969 48.875 29.2031
Q48.875 32.125 46.2344 32.9062
Q43.6094 33.6875 39.2031 33.6875
L30.9062 33.6875
L24.125 6.5
Q23.6875 5.28125 23.6875 4.29688
Q23.6875 3.51562 27.0938 3.51562
L39.2031 3.51562
Q46.4375 3.51562 50.9219 4.64062
Q55.4219 5.76562 58.375 8.21875
Q61.3281 10.6875 63.4688 14.5
Q65.625 18.3125 68.7031 25.5938
Q68.8906 26.2188 69.5781 26.2188
L70.5156 26.2188
Q70.9062 26.2188 71.1875 25.875
Q71.4844 25.5312 71.4844 25.0938
Q71.4844 24.9062 71.3906 24.7031
L61.0781 0.59375
Q60.8906 0 60.2969 0
z
" id="Cmmi10-45"/>
      <path d="
M9.42188 75.9844
L18.4062 75.9844
L18.4062 0
L9.42188 0
z
" id="BitstreamVeraSans-Roman-6c"/>
      <path d="
M44.3906 34.1875
Q47.5625 33.1094 50.5625 29.5938
Q53.5625 26.0781 56.5938 19.9219
L66.6094 0
L56 0
L46.6875 18.7031
Q43.0625 26.0312 39.6719 28.4219
Q36.2812 30.8125 30.4219 30.8125
L19.6719 30.8125
L19.6719 0
L9.8125 0
L9.8125 72.9062
L32.0781 72.9062
Q44.5781 72.9062 50.7344 67.6719
Q56.8906 62.4531 56.8906 51.9062
Q56.8906 45.0156 53.6875 40.4688
Q50.4844 35.9375 44.3906 34.1875
M19.6719 64.7969
L19.6719 38.9219
L32.0781 38.9219
Q39.2031 38.9219 42.8438 42.2188
Q46.4844 45.5156 46.4844 51.9062
Q46.4844 58.2969 42.8438 61.5469
Q39.2031 64.7969 32.0781 64.7969
z
" id="BitstreamVeraSans-Roman-52"/>
      <path d="
M11.7188 12.4062
L22.0156 12.4062
L22.0156 0
L11.7188 0
z

M11.7188 51.7031
L22.0156 51.7031
L22.0156 39.3125
L11.7188 39.3125
z
" id="BitstreamVeraSans-Roman-3a"/>
      <path d="
M9.42188 54.6875
L18.4062 54.6875
L18.4062 0
L9.42188 0
z

M9.42188 75.9844
L18.4062 75.9844
L18.4062 64.5938
L9.42188 64.5938
z
" id="BitstreamVeraSans-Roman-69"/>
      <path d="
M22.0156 -1.125
L14.0156 62.5938
Q13.2812 64.7969 6.5 64.7969
Q5.51562 64.7969 5.51562 66.1094
Q5.71875 67.1875 6 67.75
Q6.29688 68.3125 7.17188 68.3125
L31.5938 68.3125
Q32.125 68.3125 32.375 67.9219
Q32.625 67.5312 32.625 67
Q32.2344 64.7969 31.2969 64.7969
Q23.4844 64.7969 23 62.1094
L29.5938 9.8125
L60.4062 58.9844
Q61.2812 60.6406 61.2812 61.625
Q61.2812 63.375 59.6875 64.0781
Q58.1094 64.7969 56 64.7969
Q54.9844 64.7969 54.9844 66.1094
Q55.1719 66.8906 55.3125 67.3281
Q55.4688 67.7812 55.7656 68.0469
Q56.0625 68.3125 56.6875 68.3125
L75.9844 68.3125
Q76.9062 68.3125 76.9062 67
Q76.5156 64.7969 75.5938 64.7969
Q68.0625 64.7969 63.8125 58.2031
Q63.625 58.0156 63.4844 58.0156
L26.6094 -1.125
Q25.875 -2.20312 24.7031 -2.20312
L23.2969 -2.20312
Q22.1719 -2.20312 22.0156 -1.125" id="Cmmi10-56"/>
      <path d="
M7.51562 13.2812
Q6.6875 13.2812 6.14062 13.9062
Q5.60938 14.5469 5.60938 15.2812
Q5.60938 16.1094 6.14062 16.6875
Q6.6875 17.2812 7.51562 17.2812
L70.3125 17.2812
Q71.0469 17.2812 71.5781 16.6875
Q72.125 16.1094 72.125 15.2812
Q72.125 14.5469 71.5781 13.9062
Q71.0469 13.2812 70.3125 13.2812
z

M7.51562 32.7188
Q6.6875 32.7188 6.14062 33.2969
Q5.60938 33.8906 5.60938 34.7188
Q5.60938 35.4531 6.14062 36.0781
Q6.6875 36.7188 7.51562 36.7188
L70.3125 36.7188
Q71.0469 36.7188 71.5781 36.0781
Q72.125 35.4531 72.125 34.7188
Q72.125 33.8906 71.5781 33.2969
Q71.0469 32.7188 70.3125 32.7188
z
" id="Cmr10-3d"/>
      <path d="
M10.6875 12.4062
L21 12.4062
L21 0
L10.6875 0
z
" id="BitstreamVeraSans-Roman-2e"/>
      <path d="
M18.3125 70.2188
L18.3125 54.6875
L36.8125 54.6875
L36.8125 47.7031
L18.3125 47.7031
L18.3125 18.0156
Q18.3125 11.3281 20.1406 9.42188
Q21.9688 7.51562 27.5938 7.51562
L36.8125 7.51562
L36.8125 0
L27.5938 0
Q17.1875 0 13.2344 3.875
Q9.28125 7.76562 9.28125 18.0156
L9.28125 47.7031
L2.6875 47.7031
L2.6875 54.6875
L9.28125 54.6875
L9.28125 70.2188
z
" id="BitstreamVeraSans-Roman-74"/>
      <path d="
M44.2812 53.0781
L44.2812 44.5781
Q40.4844 46.5312 36.375 47.5
Q32.2812 48.4844 27.875 48.4844
Q21.1875 48.4844 17.8438 46.4375
Q14.5 44.3906 14.5 40.2812
Q14.5 37.1562 16.8906 35.375
Q19.2812 33.5938 26.5156 31.9844
L29.5938 31.2969
Q39.1562 29.25 43.1875 25.5156
Q47.2188 21.7812 47.2188 15.0938
Q47.2188 7.46875 41.1875 3.01562
Q35.1562 -1.42188 24.6094 -1.42188
Q20.2188 -1.42188 15.4531 -0.5625
Q10.6875 0.296875 5.42188 2
L5.42188 11.2812
Q10.4062 8.6875 15.2344 7.39062
Q20.0625 6.10938 24.8125 6.10938
Q31.1562 6.10938 34.5625 8.28125
Q37.9844 10.4531 37.9844 14.4062
Q37.9844 18.0625 35.5156 20.0156
Q33.0625 21.9688 24.7031 23.7812
L21.5781 24.5156
Q13.2344 26.2656 9.51562 29.9062
Q5.8125 33.5469 5.8125 39.8906
Q5.8125 47.6094 11.2812 51.7969
Q16.75 56 26.8125 56
Q31.7812 56 36.1719 55.2656
Q40.5781 54.5469 44.2812 53.0781" id="BitstreamVeraSans-Roman-73"/>
     </defs>
     <g transform="translate(70.38775875 62.384775)scale(0.12 -0.12)">
      <use transform="translate(0.0 0.015625)" xlink:href="#BitstreamVeraSans-Roman-52"/>
      <use transform="translate(69.482421875 0.015625)" xlink:href="#BitstreamVeraSans-Roman-65"/>
      <use transform="translate(131.005859375 0.015625)" xlink:href="#BitstreamVeraSans-Roman-73"/>
      <use transform="translate(183.10546875 0.015625)" xlink:href="#BitstreamVeraSans-Roman-6f"/>
      <use transform="translate(244.287109375 0.015625)" xlink:href="#BitstreamVeraSans-Roman-6c"/>
      <use transform="translate(272.0703125 0.015625)" xlink:href="#BitstreamVeraSans-Roman-75"/>
      <use transform="translate(335.44921875 0.015625)" xlink:href="#BitstreamVeraSans-Roman-74"/>
      <use transform="translate(374.658203125 0.015625)" xlink:href="#BitstreamVeraSans-Roman-69"/>
      <use transform="translate(402.44140625 0.015625)" xlink:href="#BitstreamVeraSans-Roman-6f"/>
      <use transform="translate(463.623046875 0.015625)" xlink:href="#BitstreamVeraSans-Roman-6e"/>
      <use transform="translate(527.001953125 0.015625)" xlink:href="#BitstreamVeraSans-Roman-20"/>
      <use transform="translate(558.7890625 0.015625)" xlink:href="#BitstreamVeraSans-Roman-3a"/>
      <use transform="translate(592.48046875 0.015625)" xlink:href="#BitstreamVeraSans-Roman-20"/>
      <use transform="translate(624.267578125 0.015625)" xlink:href="#Cmmi10-be"/>
      <use transform="translate(681.34765625 -25.49375)scale(0.7)" xlink:href="#Cmmi10-45"/>
      <use transform="translate(772.685546875 0.015625)" xlink:href="#Cmr10-3d"/>
      <use transform="translate(856.744140625 0.015625)" xlink:href="#BitstreamVeraSans-Roman-20"/>
      <use transform="translate(888.53125 0.015625)" xlink:href="#BitstreamVeraSans-Roman-33"/>
      <use transform="translate(952.154296875 0.015625)" xlink:href="#BitstreamVeraSans-Roman-30"/>
      <use transform="translate(1015.77734375 0.015625)" xlink:href="#BitstreamVeraSans-Roman-33"/>
      <use transform="translate(1079.40039062 0.015625)" xlink:href="#BitstreamVeraSans-Roman-2e"/>
      <use transform="translate(1103.4375 0.015625)" xlink:href="#BitstreamVeraSans-Roman-37"/>
      <use transform="translate(1167.06054688 0.015625)" xlink:href="#BitstreamVeraSans-Roman-20"/>
      <use transform="translate(1198.84765625 0.015625)" xlink:href="#Cmmi10-65"/>
      <use transform="translate(1245.33203125 0.015625)" xlink:href="#Cmmi10-56"/>
     </g>
     <!--                          -->
     <g transform="translate(70.38775875 76.446525)scale(0.12 -0.12)">
      <use xlink:href="#BitstreamVeraSans-Roman-20"/>
      <use x="31.787109375" xlink:href="#BitstreamVeraSans-Roman-20"/>
      <use x="63.57421875" xlink:href="#BitstreamVeraSans-Roman-20"/>
      <use x="95.361328125" xlink:href="#BitstreamVeraSans-Roman-20"/>
      <use x="127.1484375" xlink:href="#BitstreamVeraSans-Roman-20"/>
      <use x="158.935546875" xlink:href="#BitstreamVeraSans-Roman-20"/>
      <use x="190.72265625" xlink:href="#BitstreamVeraSans-Roman-20"/>
      <use x="222.509765625" xlink:href="#BitstreamVeraSans-Roman-20"/>
      <use x="254.296875" xlink:href="#BitstreamVeraSans-Roman-20"/>
      <use x="286.083984375" xlink:href="#BitstreamVeraSans-Roman-20"/>
      <use x="317.87109375" xlink:href="#BitstreamVeraSans-Roman-20"/>
      <use x="349.658203125" xlink:href="#BitstreamVeraSans-Roman-20"/>
      <use x="381.4453125" xlink:href="#BitstreamVeraSans-Roman-20"/>
      <use x="413.232421875" xlink:href="#BitstreamVeraSans-Roman-20"/>
      <use x="445.01953125" xlink:href="#BitstreamVeraSans-Roman-20"/>
      <use x="476.806640625" xlink:href="#BitstreamVeraSans-Roman-20"/>
      <use x="508.59375" xlink:href="#BitstreamVeraSans-Roman-20"/>
      <use x="540.380859375" xlink:href="#BitstreamVeraSans-Roman-20"/>
      <use x="572.16796875" xlink:href="#BitstreamVeraSans-Roman-20"/>
      <use x="603.955078125" xlink:href="#BitstreamVeraSans-Roman-20"/>
      <use x="635.7421875" xlink:href="#BitstreamVeraSans-Roman-20"/>
      <use x="667.529296875" xlink:href="#BitstreamVeraSans-Roman-20"/>
      <use x="699.31640625" xlink:href="#BitstreamVeraSans-Roman-20"/>
      <use x="731.103515625" xlink:href="#BitstreamVeraSans-Roman-20"/>
     </g>
    </g>
    <g id="line2d_202">
     <path d="
M65.9952 87.4129
L79.9896 87.4129" style="fill:none;stroke:#000000;stroke-linecap:square;stroke-width:4;"/>
    </g>
    <g id="line2d_203"/>
    <g id="text_16">
     <!-- Total -->
     <defs>
      <path d="
M34.2812 27.4844
Q23.3906 27.4844 19.1875 25
Q14.9844 22.5156 14.9844 16.5
Q14.9844 11.7188 18.1406 8.90625
Q21.2969 6.10938 26.7031 6.10938
Q34.1875 6.10938 38.7031 11.4062
Q43.2188 16.7031 43.2188 25.4844
L43.2188 27.4844
z

M52.2031 31.2031
L52.2031 0
L43.2188 0
L43.2188 8.29688
Q40.1406 3.32812 35.5469 0.953125
Q30.9531 -1.42188 24.3125 -1.42188
Q15.9219 -1.42188 10.9531 3.29688
Q6 8.01562 6 15.9219
Q6 25.1406 12.1719 29.8281
Q18.3594 34.5156 30.6094 34.5156
L43.2188 34.5156
L43.2188 35.4062
Q43.2188 41.6094 39.1406 45
Q35.0625 48.3906 27.6875 48.3906
Q23 48.3906 18.5469 47.2656
Q14.1094 46.1406 10.0156 43.8906
L10.0156 52.2031
Q14.9375 54.1094 19.5781 55.0469
Q24.2188 56 28.6094 56
Q40.4844 56 46.3438 49.8438
Q52.2031 43.7031 52.2031 31.2031" id="BitstreamVeraSans-Roman-61"/>
      <path d="
M-0.296875 72.9062
L61.375 72.9062
L61.375 64.5938
L35.5 64.5938
L35.5 0
L25.5938 0
L25.5938 64.5938
L-0.296875 64.5938
z
" id="BitstreamVeraSans-Roman-54"/>
     </defs>
     <g transform="translate(90.9852 90.911548125)scale(0.09996 -0.09996)">
      <use xlink:href="#BitstreamVeraSans-Roman-54"/>
      <use x="44.083984375" xlink:href="#BitstreamVeraSans-Roman-6f"/>
      <use x="105.265625" xlink:href="#BitstreamVeraSans-Roman-74"/>
      <use x="144.474609375" xlink:href="#BitstreamVeraSans-Roman-61"/>
      <use x="205.75390625" xlink:href="#BitstreamVeraSans-Roman-6c"/>
     </g>
    </g>
    <g id="line2d_204">
     <path d="
M65.9952 102.085
L79.9896 102.085" style="fill:none;stroke:#ffd700;stroke-linecap:square;stroke-width:2.5;"/>
    </g>
    <g id="line2d_205"/>
    <g id="text_17">
     <!-- TFN -->
     <g transform="translate(90.9852 105.583801875)scale(0.09996 -0.09996)">
      <use xlink:href="#BitstreamVeraSans-Roman-54"/>
      <use x="61.083984375" xlink:href="#BitstreamVeraSans-Roman-46"/>
      <use x="118.603515625" xlink:href="#BitstreamVeraSans-Roman-4e"/>
     </g>
    </g>
    <g id="line2d_206">
     <path d="
M65.9952 116.757
L79.9896 116.757" style="fill:none;stroke:#228b22;stroke-linecap:square;stroke-width:2.5;"/>
    </g>
    <g id="line2d_207"/>
    <g id="text_18">
     <!-- Johnson -->
     <defs>
      <path d="
M54.8906 33.0156
L54.8906 0
L45.9062 0
L45.9062 32.7188
Q45.9062 40.4844 42.875 44.3281
Q39.8438 48.1875 33.7969 48.1875
Q26.5156 48.1875 22.3125 43.5469
Q18.1094 38.9219 18.1094 30.9062
L18.1094 0
L9.07812 0
L9.07812 75.9844
L18.1094 75.9844
L18.1094 46.1875
Q21.3438 51.125 25.7031 53.5625
Q30.0781 56 35.7969 56
Q45.2188 56 50.0469 50.1719
Q54.8906 44.3438 54.8906 33.0156" id="BitstreamVeraSans-Roman-68"/>
      <path d="
M9.8125 72.9062
L19.6719 72.9062
L19.6719 5.07812
Q19.6719 -8.10938 14.6719 -14.0625
Q9.67188 -20.0156 -1.42188 -20.0156
L-5.17188 -20.0156
L-5.17188 -11.7188
L-2.09375 -11.7188
Q4.4375 -11.7188 7.125 -8.04688
Q9.8125 -4.39062 9.8125 5.07812
z
" id="BitstreamVeraSans-Roman-4a"/>
     </defs>
     <g transform="translate(90.9852 120.256055625)scale(0.09996 -0.09996)">
      <use xlink:href="#BitstreamVeraSans-Roman-4a"/>
      <use x="29.4921875" xlink:href="#BitstreamVeraSans-Roman-6f"/>
      <use x="90.673828125" xlink:href="#BitstreamVeraSans-Roman-68"/>
      <use x="154.052734375" xlink:href="#BitstreamVeraSans-Roman-6e"/>
      <use x="217.431640625" xlink:href="#BitstreamVeraSans-Roman-73"/>
      <use x="269.53125" xlink:href="#BitstreamVeraSans-Roman-6f"/>
      <use x="330.712890625" xlink:href="#BitstreamVeraSans-Roman-6e"/>
     </g>
    </g>
    <g id="line2d_208">
     <path d="
M153.038 87.4129
L167.033 87.4129" style="fill:none;stroke:#6a5acd;stroke-linecap:square;stroke-width:2.5;"/>
    </g>
    <g id="line2d_209"/>
    <g id="text_19">
     <!-- Elec. -->
     <g transform="translate(178.02849375 90.911548125)scale(0.09996 -0.09996)">
      <use xlink:href="#BitstreamVeraSans-Roman-45"/>
      <use x="63.18359375" xlink:href="#BitstreamVeraSans-Roman-6c"/>
      <use x="90.966796875" xlink:href="#BitstreamVeraSans-Roman-65"/>
      <use x="152.490234375" xlink:href="#BitstreamVeraSans-Roman-63"/>
      <use x="207.470703125" xlink:href="#BitstreamVeraSans-Roman-2e"/>
     </g>
    </g>
    <g id="line2d_210">
     <path d="
M153.038 102.085
L167.033 102.085" style="fill:none;stroke:#ff0000;stroke-linecap:square;stroke-width:2.5;"/>
    </g>
    <g id="line2d_211"/>
    <g id="text_20">
     <!-- Basse Freq. -->
     <defs>
      <path d="
M19.6719 34.8125
L19.6719 8.10938
L35.5 8.10938
Q43.4531 8.10938 47.2812 11.4062
Q51.125 14.7031 51.125 21.4844
Q51.125 28.3281 47.2812 31.5625
Q43.4531 34.8125 35.5 34.8125
z

M19.6719 64.7969
L19.6719 42.8281
L34.2812 42.8281
Q41.5 42.8281 45.0312 45.5312
Q48.5781 48.25 48.5781 53.8125
Q48.5781 59.3281 45.0312 62.0625
Q41.5 64.7969 34.2812 64.7969
z

M9.8125 72.9062
L35.0156 72.9062
Q46.2969 72.9062 52.3906 68.2188
Q58.5 63.5312 58.5 54.8906
Q58.5 48.1875 55.375 44.2344
Q52.25 40.2812 46.1875 39.3125
Q53.4688 37.75 57.5 32.7812
Q61.5312 27.8281 61.5312 20.4062
Q61.5312 10.6406 54.8906 5.3125
Q48.25 0 35.9844 0
L9.8125 0
z
" id="BitstreamVeraSans-Roman-42"/>
     </defs>
     <g transform="translate(178.02849375 105.583801875)scale(0.09996 -0.09996)">
      <use xlink:href="#BitstreamVeraSans-Roman-42"/>
      <use x="68.603515625" xlink:href="#BitstreamVeraSans-Roman-61"/>
      <use x="129.8828125" xlink:href="#BitstreamVeraSans-Roman-73"/>
      <use x="181.982421875" xlink:href="#BitstreamVeraSans-Roman-73"/>
      <use x="234.08203125" xlink:href="#BitstreamVeraSans-Roman-65"/>
      <use x="295.60546875" xlink:href="#BitstreamVeraSans-Roman-20"/>
      <use x="327.392578125" xlink:href="#BitstreamVeraSans-Roman-46"/>
      <use x="377.662109375" xlink:href="#BitstreamVeraSans-Roman-72"/>
      <use x="416.525390625" xlink:href="#BitstreamVeraSans-Roman-65"/>
      <use x="478.048828125" xlink:href="#BitstreamVeraSans-Roman-71"/>
      <use x="541.525390625" xlink:href="#BitstreamVeraSans-Roman-2e"/>
     </g>
    </g>
   </g>
  </g>
 </g>
 <defs>
  <clipPath id="p5c58de3997">
   <rect height="344.16" width="334.8" x="54.0" y="43.02"/>
  </clipPath>
 </defs>
</svg>
