<?xml version="1.0" encoding="UTF-8" standalone="no"?>
<!-- Created with Inkscape (http://www.inkscape.org/) -->

<svg
   xmlns:dc="http://purl.org/dc/elements/1.1/"
   xmlns:cc="http://creativecommons.org/ns#"
   xmlns:rdf="http://www.w3.org/1999/02/22-rdf-syntax-ns#"
   xmlns:svg="http://www.w3.org/2000/svg"
   xmlns="http://www.w3.org/2000/svg"
   xmlns:xlink="http://www.w3.org/1999/xlink"
   xmlns:sodipodi="http://sodipodi.sourceforge.net/DTD/sodipodi-0.dtd"
   xmlns:inkscape="http://www.inkscape.org/namespaces/inkscape"
   version="1.1"
   id="svg16853"
   xml:space="preserve"
   width="377.40298"
   height="280.3815"
   viewBox="0 0 377.40298 280.3815"
   sodipodi:docname="thermal_scheme.svg"
   inkscape:version="0.92.1 r15371"><metadata
     id="metadata16859"><rdf:RDF><cc:Work
         rdf:about=""><dc:format>image/svg+xml</dc:format><dc:type
           rdf:resource="http://purl.org/dc/dcmitype/StillImage" /><dc:title></dc:title></cc:Work></rdf:RDF></metadata><defs
     id="defs16857"><pattern
       inkscape:collect="always"
       xlink:href="#pattern17143"
       id="pattern19806"
       patternTransform="matrix(1.255,0,0,1.255,-138.2354,142.6726)" /><pattern
       patternTransform="translate(-154.202,-126.16)"
       patternUnits="userSpaceOnUse"
       x="0"
       y="0"
       width="4.98138"
       height="4.98138"
       id="pattern17143"><g
         id="g17141"><path
           d="M 0,0 3.08846,3.08846"
           style="fill:none;stroke:#000000;stroke-opacity:1;stroke-width:0.3985;stroke-linecap:butt;stroke-linejoin:miter;stroke-miterlimit:10;stroke-dasharray:none"
           id="path17139" /></g></pattern><clipPath
       clipPathUnits="userSpaceOnUse"
       id="clipPath17441"><path
         d="M 0,0 H 82.72916 V 82.72916 H 0 Z"
         id="path17439"
         inkscape:connector-curvature="0" /></clipPath><clipPath
       clipPathUnits="userSpaceOnUse"
       id="clipPath17561"><path
         d="M 0,0 H 82.72916 V 82.72916 H 0 Z"
         id="path17559"
         inkscape:connector-curvature="0" /></clipPath><clipPath
       clipPathUnits="userSpaceOnUse"
       id="clipPath17681"><path
         d="M 0,0 H 82.72916 V 82.72916 H 0 Z"
         id="path17679"
         inkscape:connector-curvature="0" /></clipPath></defs><sodipodi:namedview
     pagecolor="#ffffff"
     bordercolor="#666666"
     borderopacity="1"
     objecttolerance="10"
     gridtolerance="10"
     guidetolerance="10"
     inkscape:pageopacity="0"
     inkscape:pageshadow="2"
     inkscape:window-width="1600"
     inkscape:window-height="837"
     id="namedview16855"
     showgrid="false"
     fit-margin-top="0"
     fit-margin-left="0"
     fit-margin-right="0"
     fit-margin-bottom="0"
     inkscape:zoom="1.189304"
     inkscape:cx="165.05962"
     inkscape:cy="81.736091"
     inkscape:window-x="-8"
     inkscape:window-y="-8"
     inkscape:window-maximized="1"
     inkscape:current-layer="g16861" /><g
     id="g16861"
     inkscape:groupmode="layer"
     inkscape:label="Report_M2Internship_Dimitri_Misiak"
     transform="matrix(1.3333333,0,0,-1.3333333,-73.935113,658.38223)"><text
       transform="scale(1,-1)"
       style="font-variant:normal;font-weight:normal;font-size:13.69091988px;font-family:CMMI10;-inkscape-font-specification:CMMI10;writing-mode:lr-tb;fill:#000000;fill-opacity:1;fill-rule:nonzero;stroke:none;stroke-width:1.255"
       id="text17127"
       x="191.0013"
       y="-288.63913"><tspan
         x="191.0013"
         y="-288.63913"
         id="tspan17125"
         style="stroke-width:1.255">T</tspan></text>
<rect
       style="opacity:0.5;fill:#bc24d4;fill-opacity:0.43478262;stroke:#000000;stroke-width:0.44533908;stroke-miterlimit:4;stroke-dasharray:none;stroke-dashoffset:0;stroke-opacity:0.94685992"
       id="rect18622-1"
       width="116.96403"
       height="33.748356"
       x="139.80016"
       y="-317.47159"
       ry="6.7965412"
       transform="scale(1,-1)" /><text
       transform="scale(1,-1)"
       style="font-variant:normal;font-weight:normal;font-size:10.00247574px;font-family:CMMI8;-inkscape-font-specification:CMMI8;writing-mode:lr-tb;fill:#000000;fill-opacity:1;fill-rule:nonzero;stroke:none;stroke-width:1.255"
       id="text17131"
       x="199.00192"
       y="-286.409"><tspan
         x="199.00192"
         y="-286.409"
         id="tspan17129"
         style="stroke-width:1.255">b</tspan></text>
<g
       id="g17133"
       transform="matrix(1.255,0,0,1.255,191.0013,288.63914)" /><path
       inkscape:connector-curvature="0"
       id="path17149"
       style="fill:none;stroke:#bf8040;stroke-width:6.25163174;stroke-linecap:butt;stroke-linejoin:miter;stroke-miterlimit:10;stroke-dasharray:none;stroke-opacity:1"
       d="m 197.58909,309.8972 v 53.36286" /><path
       inkscape:connector-curvature="0"
       id="path17145"
       style="fill:url(#pattern19806);fill-opacity:1;fill-rule:nonzero;stroke:none;stroke-width:1.255"
       d="m 144.22619,302.78224 v 7.11496 h 106.72576 v -7.11496 z" /><rect
       style="opacity:0.5;fill:#bc24d4;fill-opacity:0.43478262;stroke:#000000;stroke-width:0.75;stroke-miterlimit:4;stroke-dasharray:none;stroke-dashoffset:0;stroke-opacity:0.94685992"
       id="rect18622"
       width="174.35329"
       height="64.211922"
       x="163.7753"
       y="-422.04745"
       transform="scale(1,-1)"
       ry="12.931564" /><path
       inkscape:connector-curvature="0"
       id="path17153"
       style="fill:none;stroke:#000000;stroke-width:1.0002476;stroke-linecap:butt;stroke-linejoin:miter;stroke-miterlimit:10;stroke-dasharray:none;stroke-opacity:1"
       d="M 144.22619,309.8972 H 250.95195" /><path
       inkscape:connector-curvature="0"
       id="path17161"
       style="fill:none;stroke:#bf8040;stroke-width:6.25163174;stroke-linecap:butt;stroke-linejoin:miter;stroke-miterlimit:10;stroke-dasharray:none;stroke-opacity:1"
       d="m 224.27052,389.94148 h 53.36285" /><text
       transform="scale(1,-1)"
       style="font-variant:normal;font-weight:normal;font-size:13.69091988px;font-family:CMMI10;-inkscape-font-specification:CMMI10;writing-mode:lr-tb;fill:#000000;fill-opacity:1;fill-rule:nonzero;stroke:none;stroke-width:1.255"
       id="text17173"
       x="202.37537"
       y="-333.98856"><tspan
         x="202.37537"
         y="-333.98856"
         id="tspan17171"
         style="stroke-width:1.255">G</tspan></text>
<text
       transform="scale(1,-1)"
       style="font-variant:normal;font-weight:normal;font-size:10.00247574px;font-family:CMMI8;-inkscape-font-specification:CMMI8;writing-mode:lr-tb;fill:#000000;fill-opacity:1;fill-rule:nonzero;stroke:none;stroke-width:1.255"
       id="text17177"
       x="213.1395"
       y="-331.75842"><tspan
         x="213.1395 218.48882"
         y="-331.75842"
         sodipodi:role="line"
         id="tspan17175"
         style="stroke-width:1.255">pb</tspan></text>
<g
       id="g17179"
       transform="matrix(1.255,0,0,1.255,202.37536,333.98856)" /><text
       transform="scale(1,-1)"
       style="font-variant:normal;font-weight:normal;font-size:13.69091988px;font-family:CMMI10;-inkscape-font-specification:CMMI10;writing-mode:lr-tb;fill:#000000;fill-opacity:1;fill-rule:nonzero;stroke:none;stroke-width:1.255"
       id="text17193"
       x="173.48903"
       y="-333.98856"><tspan
         x="173.48903"
         y="-333.98856"
         id="tspan17191"
         style="stroke-width:1.255">P</tspan></text>
<text
       transform="scale(1,-1)"
       style="font-variant:normal;font-weight:normal;font-size:10.00247574px;font-family:CMMI8;-inkscape-font-specification:CMMI8;writing-mode:lr-tb;fill:#000000;fill-opacity:1;fill-rule:nonzero;stroke:none;stroke-width:1.255"
       id="text17197"
       x="182.27905"
       y="-331.75842"><tspan
         x="182.27905 187.62837"
         y="-331.75842"
         sodipodi:role="line"
         id="tspan17195"
         style="stroke-width:1.255">pb</tspan></text>
<g
       id="g17199"
       transform="matrix(1.255,0,0,1.255,173.48903,333.98856)" /><text
       transform="scale(1,-1)"
       style="font-variant:normal;font-weight:normal;font-size:13.69091988px;font-family:CMMI10;-inkscape-font-specification:CMMI10;writing-mode:lr-tb;fill:#000000;fill-opacity:1;fill-rule:nonzero;stroke:none;stroke-width:1.255"
       id="text17213"
       x="133.03285"
       y="-375.79764"><tspan
         x="133.03285"
         y="-375.79764"
         id="tspan17211"
         style="stroke-width:1.255">G</tspan></text>
<text
       transform="scale(1,-1)"
       style="font-variant:normal;font-weight:normal;font-size:10.00247574px;font-family:CMMI8;-inkscape-font-specification:CMMI8;writing-mode:lr-tb;fill:#000000;fill-opacity:1;fill-rule:nonzero;stroke:none;stroke-width:1.255"
       id="text17217"
       x="143.79698"
       y="-373.74445"><tspan
         x="143.79698 149.44238"
         y="-373.74445"
         sodipodi:role="line"
         id="tspan17215"
         style="stroke-width:1.255">ap</tspan></text>
<g
       id="g17219"
       transform="matrix(1.255,0,0,1.255,133.03285,375.79764)" /><text
       transform="scale(1,-1)"
       style="font-variant:normal;font-weight:normal;font-size:13.69091988px;font-family:CMMI10;-inkscape-font-specification:CMMI10;writing-mode:lr-tb;fill:#000000;fill-opacity:1;fill-rule:nonzero;stroke:none;stroke-width:1.255"
       id="text17233"
       x="134.02052"
       y="-398.7265"><tspan
         x="134.02052"
         y="-398.7265"
         id="tspan17231"
         style="stroke-width:1.255">P</tspan></text>
<text
       transform="scale(1,-1)"
       style="font-variant:normal;font-weight:normal;font-size:10.00247574px;font-family:CMMI8;-inkscape-font-specification:CMMI8;writing-mode:lr-tb;fill:#000000;fill-opacity:1;fill-rule:nonzero;stroke:none;stroke-width:1.255"
       id="text17237"
       x="142.81055"
       y="-396.67206"><tspan
         x="142.81055 148.45595"
         y="-396.67206"
         sodipodi:role="line"
         id="tspan17235"
         style="stroke-width:1.255">ap</tspan></text>
<g
       id="g17239"
       transform="matrix(1.255,0,0,1.255,134.02053,398.72649)" /><text
       transform="scale(1,-1)"
       style="font-variant:normal;font-weight:normal;font-size:13.69091988px;font-family:CMMI10;-inkscape-font-specification:CMMI10;writing-mode:lr-tb;fill:#000000;fill-opacity:1;fill-rule:nonzero;stroke:none;stroke-width:1.255"
       id="text17253"
       x="240.11447"
       y="-375.79764"><tspan
         x="240.11447"
         y="-375.79764"
         id="tspan17251"
         style="stroke-width:1.255">G</tspan></text>
<text
       transform="scale(1,-1)"
       style="font-variant:normal;font-weight:normal;font-size:10.00247574px;font-family:CMMI8;-inkscape-font-specification:CMMI8;writing-mode:lr-tb;fill:#000000;fill-opacity:1;fill-rule:nonzero;stroke:none;stroke-width:1.255"
       id="text17257"
       x="250.87987"
       y="-373.74445"><tspan
         x="250.87987 255.81007"
         y="-373.74445"
         sodipodi:role="line"
         id="tspan17255"
         style="stroke-width:1.255">ep</tspan></text>
<g
       id="g17259"
       transform="matrix(1.255,0,0,1.255,240.11447,375.79764)" /><text
       transform="scale(1,-1)"
       style="font-variant:normal;font-weight:normal;font-size:13.69091988px;font-family:CMMI10;-inkscape-font-specification:CMMI10;writing-mode:lr-tb;fill:#000000;fill-opacity:1;fill-rule:nonzero;stroke:none;stroke-width:1.255"
       id="text17273"
       x="241.10214"
       y="-398.7265"><tspan
         x="241.10214"
         y="-398.7265"
         id="tspan17271"
         style="stroke-width:1.255">P</tspan></text>
<text
       transform="scale(1,-1)"
       style="font-variant:normal;font-weight:normal;font-size:10.00247574px;font-family:CMMI8;-inkscape-font-specification:CMMI8;writing-mode:lr-tb;fill:#000000;fill-opacity:1;fill-rule:nonzero;stroke:none;stroke-width:1.255"
       id="text17277"
       x="249.89217"
       y="-396.67206"><tspan
         x="249.89217 254.82239"
         y="-396.67206"
         sodipodi:role="line"
         id="tspan17275"
         style="stroke-width:1.255">ep</tspan></text>
<g
       id="g17279"
       transform="matrix(1.255,0,0,1.255,241.10214,398.72649)" /><path
       inkscape:connector-curvature="0"
       id="path17285"
       style="fill:#fff200;fill-opacity:1;fill-rule:nonzero;stroke:#000000;stroke-width:0.50011748;stroke-linecap:butt;stroke-linejoin:miter;stroke-miterlimit:10;stroke-dasharray:none;stroke-opacity:1"
       d="m 170.90762,363.26006 v 53.36285 h 53.3629 v -53.36285 z" /><text
       transform="scale(1,-1)"
       style="font-variant:normal;font-weight:normal;font-size:13.69091988px;font-family:CMMI10;-inkscape-font-specification:CMMI10;writing-mode:lr-tb;fill:#000000;fill-opacity:1;fill-rule:nonzero;stroke:none;stroke-width:1.255"
       id="text17297"
       x="179.67743"
       y="-387.26205"><tspan
         x="179.67743"
         y="-387.26205"
         id="tspan17295"
         style="stroke-width:1.255">T</tspan></text>
<text
       transform="scale(1,-1)"
       style="font-variant:normal;font-weight:normal;font-size:10.00247574px;font-family:CMMI8;-inkscape-font-specification:CMMI8;writing-mode:lr-tb;fill:#000000;fill-opacity:1;fill-rule:nonzero;stroke:none;stroke-width:1.255"
       id="text17301"
       x="187.67805"
       y="-385.20889"><tspan
         x="187.67805"
         y="-385.20889"
         id="tspan17299"
         style="stroke-width:1.255">p</tspan></text>
<text
       transform="scale(1,-1)"
       style="font-variant:normal;font-weight:normal;font-size:13.69091988px;font-family:CMMI10;-inkscape-font-specification:CMMI10;writing-mode:lr-tb;fill:#000000;fill-opacity:1;fill-rule:nonzero;stroke:none;stroke-width:1.255"
       id="text17305"
       x="193.65311"
       y="-387.26205"><tspan
         x="193.65311 199.74283"
         y="-387.26205"
         sodipodi:role="line"
         id="tspan17303"
         style="stroke-width:1.255">,C</tspan></text>
<text
       transform="scale(1,-1)"
       style="font-variant:normal;font-weight:normal;font-size:10.00247574px;font-family:CMMI8;-inkscape-font-specification:CMMI8;writing-mode:lr-tb;fill:#000000;fill-opacity:1;fill-rule:nonzero;stroke:none;stroke-width:1.255"
       id="text17309"
       x="209.52258"
       y="-385.20889"><tspan
         x="209.52258"
         y="-385.20889"
         id="tspan17307"
         style="stroke-width:1.255">p</tspan></text>
<g
       id="g17311"
       transform="matrix(1.255,0,0,1.255,179.67743,387.26206)" /><rect
       style="opacity:0.5;fill:#bc24d4;fill-opacity:0.43478262;stroke:#000000;stroke-width:0.46807984;stroke-miterlimit:4;stroke-dasharray:none;stroke-dashoffset:0;stroke-opacity:0.94685992"
       id="rect18622-0"
       width="67.615288"
       height="64.493843"
       x="56.871082"
       y="-421.96689"
       ry="12.988339"
       transform="scale(1,-1)" /><path
       inkscape:connector-curvature="0"
       id="path17157"
       style="fill:none;stroke:#bf8040;stroke-width:6.25163174;stroke-linecap:butt;stroke-linejoin:miter;stroke-miterlimit:10;stroke-dasharray:none;stroke-opacity:1"
       d="M 170.90762,389.94148 H 117.54477" /><path
       inkscape:connector-curvature="0"
       id="path17317"
       style="fill:#ff8000;fill-opacity:1;fill-rule:nonzero;stroke:#000000;stroke-width:0.50011748;stroke-linecap:butt;stroke-linejoin:miter;stroke-miterlimit:10;stroke-dasharray:none;stroke-opacity:1"
       d="m 117.54477,363.26006 v 53.36285 H 64.181904 v -53.36285 z" /><text
       transform="scale(1,-1)"
       style="font-variant:normal;font-weight:normal;font-size:13.69091988px;font-family:CMMI10;-inkscape-font-specification:CMMI10;writing-mode:lr-tb;fill:#000000;fill-opacity:1;fill-rule:nonzero;stroke:none;stroke-width:1.255"
       id="text17329"
       x="72.65731"
       y="-386.59439"><tspan
         x="72.65731"
         y="-386.59439"
         id="tspan17327"
         style="stroke-width:1.255">T</tspan></text>
<text
       transform="scale(1,-1)"
       style="font-variant:normal;font-weight:normal;font-size:10.00247574px;font-family:CMMI8;-inkscape-font-specification:CMMI8;writing-mode:lr-tb;fill:#000000;fill-opacity:1;fill-rule:nonzero;stroke:none;stroke-width:1.255"
       id="text17333"
       x="80.657936"
       y="-384.53995"><tspan
         x="80.657936"
         y="-384.53995"
         id="tspan17331"
         style="stroke-width:1.255">a</tspan></text>
<text
       transform="scale(1,-1)"
       style="font-variant:normal;font-weight:normal;font-size:13.69091988px;font-family:CMMI10;-inkscape-font-specification:CMMI10;writing-mode:lr-tb;fill:#000000;fill-opacity:1;fill-rule:nonzero;stroke:none;stroke-width:1.255"
       id="text17337"
       x="86.927917"
       y="-386.59439"><tspan
         x="86.927917 93.017639"
         y="-386.59439"
         sodipodi:role="line"
         id="tspan17335"
         style="stroke-width:1.255">,C</tspan></text>
<text
       transform="scale(1,-1)"
       style="font-variant:normal;font-weight:normal;font-size:10.00247574px;font-family:CMMI8;-inkscape-font-specification:CMMI8;writing-mode:lr-tb;fill:#000000;fill-opacity:1;fill-rule:nonzero;stroke:none;stroke-width:1.255"
       id="text17341"
       x="102.79864"
       y="-384.53995"><tspan
         x="102.79864"
         y="-384.53995"
         id="tspan17339"
         style="stroke-width:1.255">a</tspan></text>
<g
       id="g17343"
       transform="matrix(1.255,0,0,1.255,72.65731,386.5944)" /><path
       inkscape:connector-curvature="0"
       id="path17349"
       style="fill:#00adef;fill-opacity:1;fill-rule:nonzero;stroke:#000000;stroke-width:0.50011748;stroke-linecap:butt;stroke-linejoin:miter;stroke-miterlimit:10;stroke-dasharray:none;stroke-opacity:1"
       d="m 277.63337,363.26006 v 53.36285 h 53.36288 v -53.36285 z" /><text
       transform="scale(1,-1)"
       style="font-variant:normal;font-weight:normal;font-size:13.69091988px;font-family:CMMI10;-inkscape-font-specification:CMMI10;writing-mode:lr-tb;fill:#000000;fill-opacity:1;fill-rule:nonzero;stroke:none;stroke-width:1.255"
       id="text17361"
       x="286.46414"
       y="-386.59439"><tspan
         x="286.46414"
         y="-386.59439"
         id="tspan17359"
         style="stroke-width:1.255">T</tspan></text>
<text
       transform="scale(1,-1)"
       style="font-style:normal;font-variant:normal;font-weight:normal;font-stretch:normal;font-size:10.00200011px;font-family:CMMI8;-inkscape-font-specification:'CMMI8, Normal';font-variant-ligatures:normal;font-variant-caps:normal;font-variant-numeric:normal;font-feature-settings:normal;text-align:start;writing-mode:lr;text-anchor:start;fill:#000000;fill-opacity:1;fill-rule:nonzero;stroke:none;stroke-width:1.255;"
       id="text17365"
       x="294.46475"
       y="-384.53995"><tspan
         sodipodi:role="line"
         id="tspan20565">e</tspan></text>
<text
       transform="scale(1,-1)"
       style="font-variant:normal;font-weight:normal;font-size:13.69091988px;font-family:CMMI10;-inkscape-font-specification:CMMI10;writing-mode:lr-tb;fill:#000000;fill-opacity:1;fill-rule:nonzero;stroke:none;stroke-width:1.255"
       id="text17369"
       x="300.01938"
       y="-386.59439"><tspan
         x="300.01938 306.1091"
         y="-386.59439"
         sodipodi:role="line"
         id="tspan17367"
         style="stroke-width:1.255">,C</tspan></text>
<text
       transform="scale(1,-1)"
       style="font-variant:normal;font-weight:normal;font-size:10.00200011px;font-family:CMMI8;-inkscape-font-specification:'CMMI8, Normal';writing-mode:lr;fill:#000000;fill-opacity:1;fill-rule:nonzero;stroke:none;stroke-width:1.255;font-style:normal;font-stretch:normal;text-anchor:start;text-align:start;font-variant-ligatures:normal;font-variant-caps:normal;font-variant-numeric:normal;font-feature-settings:normal;"
       id="text17373"
       x="315.89011"
       y="-384.53995"><tspan
         sodipodi:role="line"
         id="tspan20567">e</tspan></text>
<g
       id="g17375"
       transform="matrix(1.255,0,0,1.255,286.46413,386.5944)" /><g
       id="g17387"
       transform="matrix(0.8202429,0,0,0.8202429,55.451336,425.92869)"><g
         id="g17389"><g
           id="g17391" /><g
           id="g17393" /><g
           id="g17395"><g
             id="g17397" /></g><g
           id="g17399" /><g
           id="g17401" /><g
           id="g17403" /><g
           id="g17405" /><g
           id="g17407"
           transform="translate(-0.199,-0.199)"><g
             id="g17409"
             transform="translate(0.199,0.199)"><g
               id="g17411"><g
                 id="g17413"><g
                   id="g17415"><g
                     id="g17417" /><g
                     id="g17419" /><path
                     d="M 0,13.7882 H 80.73663"
                     style="fill:none;stroke:#000000;stroke-width:0.3985;stroke-linecap:butt;stroke-linejoin:miter;stroke-miterlimit:10;stroke-dasharray:none;stroke-opacity:1"
                     id="path17421"
                     inkscape:connector-curvature="0" /><g
                     id="g17423"
                     transform="translate(80.73663,13.7882)"><g
                       id="g17425"><path
                         d="M 1.99252,0 -1.19551,1.59401 0,0 -1.19551,-1.59401"
                         style="fill:#000000;fill-opacity:1;fill-rule:nonzero;stroke:none"
                         id="path17427"
                         inkscape:connector-curvature="0" /></g></g><path
                     d="M 27.57639,0 V 80.73663"
                     style="fill:none;stroke:#000000;stroke-width:0.3985;stroke-linecap:butt;stroke-linejoin:miter;stroke-miterlimit:10;stroke-dasharray:none;stroke-opacity:1"
                     id="path17429"
                     inkscape:connector-curvature="0" /><g
                     id="g17431"
                     transform="rotate(90,-26.58012,54.15651)"><g
                       id="g17433"><path
                         d="M 1.99252,0 -1.19551,1.59401 0,0 -1.19551,-1.59401"
                         style="fill:#000000;fill-opacity:1;fill-rule:nonzero;stroke:none"
                         id="path17435"
                         inkscape:connector-curvature="0" /></g></g><g
                     id="g17437"
                     clip-path="url(#clipPath17441)"><g
                       id="g17443"><path
                         d="m 6.89409,13.7882 h 20.6823 v 53.74795 l 0.48744,-5.46553 0.48747,-4.65264 0.48746,-4.00116 0.48745,-3.46722 0.48748,-3.02727 0.48744,-2.66264 0.48747,-2.35852 0.48747,-2.10315 0.48745,-1.88715 0.48747,-1.70315 0.48746,-1.54518 0.48745,-1.40854 0.48748,-1.28945 0.48745,-1.18487 0.48746,-1.09238 0.48747,-1.01004 0.48746,-0.93626 0.48746,-0.86975 0.48745,-0.80947 0.48747,-0.75462 0.48746,-0.70442 0.48746,-0.65834 0.48748,-0.61588 0.48744,-0.57666 0.48747,-0.5403 0.48747,-0.50657 0.48744,-0.47518 0.48748,-0.44592 0.48747,-0.41863 0.48744,-0.39311 0.48747,-0.36923 0.48746,-0.34694 0.48746,-0.32598 0.48747,-0.30639 0.48746,-0.28798 0.48745,-0.27072 0.48746,-0.2545 0.48746,-0.23931 0.48747,-0.225 0.48746,-0.21158 0.48746,-0.19896 0.48747,-0.1871 0.48746,-0.17596 0.48745,-0.1655 0.48746,-0.15564 0.48747,-0.14638 0.48746,-0.13766 0.48746,-0.12948 0.48747,-0.12179 0.48744,-0.11453 0.48747,-0.10775 0.48748,-0.10131 0.48744,-0.09533 0.48747,-0.08964 0.48747,-0.08432 0.48744,-0.07932 0.48748,-0.07458 0.48746,-0.07016 0.48746,-0.066 0.48747,-0.06207 0.48745,-0.05839 0.48746,-0.05492 0.48746,-0.05167 0.48746,-0.04858 0.48747,-0.0457 0.48746,-0.04297 0.48745,-0.04043 0.48747,-0.03804 0.48746,-0.03577 0.48746,-0.03365 0.48746,-0.03164 0.48747,-0.02978 0.48746,-0.028 0.48745,-0.02633 0.48748,-0.02475 0.48744,-0.02332 0.48747,-0.0219 0.48747,-0.02062 0.48745,-0.0194 0.48747,-0.01823 0.48747,-0.01715 0.48744,-0.01614 0.48748,-0.01517 0.48745,-0.01429 0.48746,-0.0134 0.48747,-0.01264 0.48746,-0.01189 0.48746,-0.01117 0.48745,-0.01051 0.48747,-0.0099 0.48746,-0.0093 0.48746,-0.0087 0.48748,-0.0082 0.48745,-0.0077 0.48746,-0.0073 0.48747,-0.0068 0.48744,-0.0064 0.48748,-0.0061 0.48747,-0.0057"
                         style="fill:none;stroke:#ff0000;stroke-width:1.69366002;stroke-linecap:butt;stroke-linejoin:miter;stroke-miterlimit:10;stroke-dasharray:none;stroke-opacity:1"
                         id="path17445"
                         inkscape:connector-curvature="0" /></g></g></g><g
                   id="g17447"><g
                     id="g17449"
                     transform="translate(72.485,2.894)"><g
                       id="g17451"><g
                         id="g17453"
                         transform="translate(-226.886,-243.909)"><text
                           transform="matrix(1,0,0,-1,226.886,243.909)"
                           style="font-variant:normal;font-weight:normal;font-size:10.90909958px;font-family:CMMI10;-inkscape-font-specification:CMMI10;writing-mode:lr-tb;fill:#000000;fill-opacity:1;fill-rule:nonzero;stroke:none"
                           id="text17457"><tspan
                             x="0"
                             y="0"
                             id="tspan17455">t</tspan></text>
<g
                           id="g17459"
                           transform="translate(226.886,243.909)" /></g></g><g
                       id="g17461"
                       transform="translate(-72.485,-2.894)" /></g></g><g
                   id="g17463"><g
                     id="g17465"
                     transform="translate(2.93,71.546)"><g
                       id="g17467"><g
                         id="g17469"
                         transform="translate(-157.331,-312.561)"><text
                           transform="matrix(1,0,0,-1,157.331,312.561)"
                           style="font-variant:normal;font-weight:normal;font-size:10.90909958px;font-family:CMR10;-inkscape-font-specification:CMR10;writing-mode:lr-tb;fill:#000000;fill-opacity:1;fill-rule:nonzero;stroke:none"
                           id="text17473"><tspan
                             x="0"
                             y="0"
                             id="tspan17471">∆</tspan></text>
<text
                           transform="matrix(1,0,0,-1,166.422,312.561)"
                           style="font-variant:normal;font-weight:normal;font-size:10.90909958px;font-family:CMMI10;-inkscape-font-specification:CMMI10;writing-mode:lr-tb;fill:#000000;fill-opacity:1;fill-rule:nonzero;stroke:none"
                           id="text17477"><tspan
                             x="0"
                             y="0"
                             id="tspan17475">T</tspan></text>
<text
                           transform="matrix(1,0,0,-1,172.797,310.924)"
                           style="font-variant:normal;font-weight:normal;font-size:7.97009993px;font-family:CMMI8;-inkscape-font-specification:CMMI8;writing-mode:lr-tb;fill:#000000;fill-opacity:1;fill-rule:nonzero;stroke:none"
                           id="text17481"><tspan
                             x="0"
                             y="0"
                             id="tspan17479">a</tspan></text>
<g
                           id="g17483"
                           transform="translate(157.331,312.561)" /></g></g><g
                       id="g17485"
                       transform="translate(-2.93,-71.546)" /></g></g></g></g><g
               id="g17487"
               transform="translate(-0.199,-0.199)" /></g><g
             id="g17489"
             transform="translate(0.199,0.199)" /></g><g
           id="g17491" /><g
           id="g17493" /></g></g><g
       id="g17495"
       transform="matrix(0.8202429,0,0,0.8202429,55.288108,425.76546)" /><g
       id="g17507"
       transform="matrix(0.8202429,0,0,0.8202429,162.17528,425.92869)"><g
         id="g17509"><g
           id="g17511" /><g
           id="g17513" /><g
           id="g17515"><g
             id="g17517" /></g><g
           id="g17519" /><g
           id="g17521" /><g
           id="g17523" /><g
           id="g17525" /><g
           id="g17527"
           transform="translate(-0.199,-0.199)"><g
             id="g17529"
             transform="translate(0.199,0.199)"><g
               id="g17531"><g
                 id="g17533"><g
                   id="g17535"><g
                     id="g17537" /><g
                     id="g17539" /><path
                     d="M 0,13.7882 H 80.73663"
                     style="fill:none;stroke:#000000;stroke-width:0.3985;stroke-linecap:butt;stroke-linejoin:miter;stroke-miterlimit:10;stroke-dasharray:none;stroke-opacity:1"
                     id="path17541"
                     inkscape:connector-curvature="0" /><g
                     id="g17543"
                     transform="translate(80.73663,13.7882)"><g
                       id="g17545"><path
                         d="M 1.99252,0 -1.19551,1.59401 0,0 -1.19551,-1.59401"
                         style="fill:#000000;fill-opacity:1;fill-rule:nonzero;stroke:none"
                         id="path17547"
                         inkscape:connector-curvature="0" /></g></g><path
                     d="M 27.57639,0 V 80.73663"
                     style="fill:none;stroke:#000000;stroke-width:0.3985;stroke-linecap:butt;stroke-linejoin:miter;stroke-miterlimit:10;stroke-dasharray:none;stroke-opacity:1"
                     id="path17549"
                     inkscape:connector-curvature="0" /><g
                     id="g17551"
                     transform="rotate(90,-26.58012,54.15651)"><g
                       id="g17553"><path
                         d="M 1.99252,0 -1.19551,1.59401 0,0 -1.19551,-1.59401"
                         style="fill:#000000;fill-opacity:1;fill-rule:nonzero;stroke:none"
                         id="path17555"
                         inkscape:connector-curvature="0" /></g></g><g
                     id="g17557"
                     clip-path="url(#clipPath17561)"><g
                       id="g17563"><path
                         d="m 6.89409,13.7882 h 20.6823 v 0 l 0.48744,44.99813 0.48747,-4.1823 0.48746,-3.6166 0.48745,-3.1512 0.48748,-2.76615 0.48744,-2.44551 0.48747,-2.1768 0.48747,-1.94998 0.48745,-1.75717 0.48747,-1.59195 0.48746,-1.44936 0.48745,-1.32533 0.48748,-1.21663 0.48745,-1.12071 0.48746,-1.03544 0.48747,-0.95916 0.48746,-0.89054 0.48746,-0.82841 0.48745,-0.77194 0.48747,-0.72035 0.48746,-0.67301 0.48746,-0.62945 0.48748,-0.58924 0.48744,-0.55197 0.48747,-0.51746 0.48747,-0.4853 0.48744,-0.45537 0.48748,-0.42746 0.48747,-0.40137 0.48744,-0.37699 0.48747,-0.35418 0.48746,-0.33279 0.48746,-0.31275 0.48747,-0.29396 0.48746,-0.27633 0.48745,-0.2598 0.48746,-0.24425 0.48746,-0.22967 0.48747,-0.21595 0.48746,-0.20307 0.48746,-0.19097 0.48747,-0.17959 0.48746,-0.1689 0.48745,-0.15885 0.48746,-0.14939 0.48747,-0.14051 0.48746,-0.13215 0.48746,-0.1243 0.48747,-0.11692 0.48744,-0.10995 0.48747,-0.10341 0.48748,-0.09727 0.48744,-0.0915 0.48747,-0.08604 0.48747,-0.08095 0.48744,-0.07614 0.48748,-0.07161 0.48746,-0.06735 0.48746,-0.06335 0.48747,-0.05958 0.48745,-0.05606 0.48746,-0.05272 0.48746,-0.04959 0.48746,-0.04663 0.48747,-0.04388 0.48746,-0.04126 0.48745,-0.03882 0.48747,-0.0365 0.48746,-0.03434 0.48746,-0.03231 0.48746,-0.03036 0.48747,-0.02858 0.48746,-0.02689 0.48745,-0.02527 0.48748,-0.02379 0.48744,-0.02237 0.48747,-0.02104 0.48747,-0.01977 0.48745,-0.01863 0.48747,-0.01749 0.48747,-0.01647 0.48744,-0.01548 0.48748,-0.01459 0.48745,-0.0137 0.48746,-0.01288 0.48747,-0.01213 0.48746,-0.01142 0.48746,-0.01071 0.48745,-0.0101 0.48747,-0.0095 0.48746,-0.0089 0.48746,-0.0084 0.48748,-0.0079 0.48745,-0.0074 0.48746,-0.007 0.48747,-0.0066 0.48744,-0.0062 0.48748,-0.0058 0.48747,-0.0055"
                         style="fill:none;stroke:#ff8000;stroke-width:1.69366002;stroke-linecap:butt;stroke-linejoin:miter;stroke-miterlimit:10;stroke-dasharray:none;stroke-opacity:1"
                         id="path17565"
                         inkscape:connector-curvature="0" /></g></g></g><g
                   id="g17567"><g
                     id="g17569"
                     transform="translate(72.485,2.894)"><g
                       id="g17571"><g
                         id="g17573"
                         transform="translate(-311.925,-243.909)"><text
                           transform="matrix(1,0,0,-1,311.925,243.909)"
                           style="font-variant:normal;font-weight:normal;font-size:10.90909958px;font-family:CMMI10;-inkscape-font-specification:CMMI10;writing-mode:lr-tb;fill:#000000;fill-opacity:1;fill-rule:nonzero;stroke:none"
                           id="text17577"><tspan
                             x="0"
                             y="0"
                             id="tspan17575">t</tspan></text>
<g
                           id="g17579"
                           transform="translate(311.925,243.909)" /></g></g><g
                       id="g17581"
                       transform="translate(-72.485,-2.894)" /></g></g><g
                   id="g17583"><g
                     id="g17585"
                     transform="translate(3.165,72.321)"><g
                       id="g17587"><g
                         id="g17589"
                         transform="translate(-242.605,-313.336)"><text
                           transform="matrix(1,0,0,-1,242.605,313.336)"
                           style="font-variant:normal;font-weight:normal;font-size:10.90909958px;font-family:CMR10;-inkscape-font-specification:CMR10;writing-mode:lr-tb;fill:#000000;fill-opacity:1;fill-rule:nonzero;stroke:none"
                           id="text17593"><tspan
                             x="0"
                             y="0"
                             id="tspan17591">∆</tspan></text>
<text
                           transform="matrix(1,0,0,-1,251.696,313.336)"
                           style="font-variant:normal;font-weight:normal;font-size:10.90909958px;font-family:CMMI10;-inkscape-font-specification:CMMI10;writing-mode:lr-tb;fill:#000000;fill-opacity:1;fill-rule:nonzero;stroke:none"
                           id="text17597"><tspan
                             x="0"
                             y="0"
                             id="tspan17595">T</tspan></text>
<text
                           transform="matrix(1,0,0,-1,258.071,311.699)"
                           style="font-variant:normal;font-weight:normal;font-size:7.97009993px;font-family:CMMI8;-inkscape-font-specification:CMMI8;writing-mode:lr-tb;fill:#000000;fill-opacity:1;fill-rule:nonzero;stroke:none"
                           id="text17601"><tspan
                             x="0"
                             y="0"
                             id="tspan17599">p</tspan></text>
<g
                           id="g17603"
                           transform="translate(242.605,313.336)" /></g></g><g
                       id="g17605"
                       transform="translate(-3.165,-72.321)" /></g></g></g></g><g
               id="g17607"
               transform="translate(-0.199,-0.199)" /></g><g
             id="g17609"
             transform="translate(0.199,0.199)" /></g><g
           id="g17611" /><g
           id="g17613" /></g></g><g
       id="g17615"
       transform="matrix(0.8202429,0,0,0.8202429,162.01205,425.76546)" /><g
       id="g17627"
       transform="matrix(0.8202429,0,0,0.8202429,268.90005,425.92869)"><g
         id="g17629"><g
           id="g17631" /><g
           id="g17633" /><g
           id="g17635"><g
             id="g17637" /></g><g
           id="g17639" /><g
           id="g17641" /><g
           id="g17643" /><g
           id="g17645" /><g
           id="g17647"
           transform="translate(-0.2,-0.199)"><g
             id="g17649"
             transform="translate(0.2,0.199)"><g
               id="g17651"><g
                 id="g17653"><g
                   id="g17655"><g
                     id="g17657" /><g
                     id="g17659" /><path
                     d="M 0,13.7882 H 80.73663"
                     style="fill:none;stroke:#000000;stroke-width:0.3985;stroke-linecap:butt;stroke-linejoin:miter;stroke-miterlimit:10;stroke-dasharray:none;stroke-opacity:1"
                     id="path17661"
                     inkscape:connector-curvature="0" /><g
                     id="g17663"
                     transform="translate(80.73663,13.7882)"><g
                       id="g17665"><path
                         d="M 1.99252,0 -1.19551,1.59401 0,0 -1.19551,-1.59401"
                         style="fill:#000000;fill-opacity:1;fill-rule:nonzero;stroke:none"
                         id="path17667"
                         inkscape:connector-curvature="0" /></g></g><path
                     d="M 27.57639,0 V 80.73663"
                     style="fill:none;stroke:#000000;stroke-width:0.3985;stroke-linecap:butt;stroke-linejoin:miter;stroke-miterlimit:10;stroke-dasharray:none;stroke-opacity:1"
                     id="path17669"
                     inkscape:connector-curvature="0" /><g
                     id="g17671"
                     transform="rotate(90,-26.58012,54.15651)"><g
                       id="g17673"><path
                         d="M 1.99252,0 -1.19551,1.59401 0,0 -1.19551,-1.59401"
                         style="fill:#000000;fill-opacity:1;fill-rule:nonzero;stroke:none"
                         id="path17675"
                         inkscape:connector-curvature="0" /></g></g><g
                     id="g17677"
                     clip-path="url(#clipPath17681)"><g
                       id="g17683"><path
                         d="m 6.89409,13.7882 h 20.6823 v 0 l 0.48744,5.57923 0.48747,4.08031 0.48746,2.91058 0.48745,2.00528 0.48748,1.30768 0.48744,0.77313 0.48747,0.36638 0.48747,0.05961 0.48745,-0.169 0.48747,-0.33673 0.48746,-0.45714 0.48745,-0.54089 0.48748,-0.59633 0.48745,-0.63007 0.48746,-0.64729 0.48747,-0.65198 0.48746,-0.64734 0.48746,-0.63577 0.48745,-0.61928 0.48747,-0.59928 0.48746,-0.57696 0.48746,-0.55314 0.48748,-0.52855 0.48744,-0.50371 0.48747,-0.47894 0.48747,-0.45455 0.48744,-0.43078 0.48748,-0.40772 0.48747,-0.38551 0.48744,-0.3642 0.48747,-0.34382 0.48746,-0.32439 0.48746,-0.30589 0.48747,-0.28834 0.48746,-0.27169 0.48745,-0.25595 0.48746,-0.24105 0.48746,-0.22695 0.48747,-0.21369 0.48746,-0.20112 0.48746,-0.18929 0.48747,-0.17816 0.48746,-0.16763 0.48745,-0.15775 0.48746,-0.14842 0.48747,-0.13962 0.48746,-0.13138 0.48746,-0.12358 0.48747,-0.11627 0.48744,-0.10938 0.48747,-0.10289 0.48748,-0.09677 0.48744,-0.09105 0.48747,-0.08563 0.48747,-0.08055 0.48744,-0.07578 0.48748,-0.07127 0.48746,-0.06705 0.48746,-0.06306 0.48747,-0.05931 0.48745,-0.05581 0.48746,-0.05247 0.48746,-0.04938 0.48746,-0.04641 0.48747,-0.04369 0.48746,-0.04108 0.48745,-0.03863 0.48747,-0.03634 0.48746,-0.0342 0.48746,-0.03215 0.48746,-0.03026 0.48747,-0.02844 0.48746,-0.02675 0.48745,-0.02518 0.48748,-0.02366 0.48744,-0.02228 0.48747,-0.02095 0.48747,-0.0197 0.48745,-0.01853 0.48747,-0.01744 0.48747,-0.01638 0.48744,-0.01542 0.48748,-0.01452 0.48745,-0.01363 0.48746,-0.01283 0.48747,-0.01207 0.48746,-0.01135 0.48746,-0.0107 0.48745,-0.01002 0.48747,-0.0095 0.48746,-0.0089 0.48746,-0.0084 0.48748,-0.0079 0.48745,-0.0074 0.48746,-0.0069 0.48747,-0.0066 0.48744,-0.0061 0.48748,-0.0058 0.48747,-0.0055"
                         style="fill:none;stroke:#0000ff;stroke-width:1.69366002;stroke-linecap:butt;stroke-linejoin:miter;stroke-miterlimit:10;stroke-dasharray:none;stroke-opacity:1"
                         id="path17685"
                         inkscape:connector-curvature="0" /></g></g></g><g
                   id="g17687"><g
                     id="g17689"
                     transform="translate(72.485,2.894)"><g
                       id="g17691"><g
                         id="g17693"
                         transform="translate(-396.965,-243.909)"><text
                           transform="matrix(1,0,0,-1,396.965,243.909)"
                           style="font-variant:normal;font-weight:normal;font-size:10.90909958px;font-family:CMMI10;-inkscape-font-specification:CMMI10;writing-mode:lr-tb;fill:#000000;fill-opacity:1;fill-rule:nonzero;stroke:none"
                           id="text17697"><tspan
                             x="0"
                             y="0"
                             id="tspan17695">t</tspan></text>
<g
                           id="g17699"
                           transform="translate(396.965,243.909)" /></g></g><g
                       id="g17701"
                       transform="translate(-72.485,-2.894)" /></g></g><g
                   id="g17703"><g
                     id="g17705"
                     transform="translate(3.499,71.546)"><g
                       id="g17707"><g
                         id="g17709"
                         transform="translate(-327.979,-312.561)"><text
                           transform="matrix(1,0,0,-1,327.979,312.561)"
                           style="font-variant:normal;font-weight:normal;font-size:10.90909958px;font-family:CMR10;-inkscape-font-specification:CMR10;writing-mode:lr-tb;fill:#000000;fill-opacity:1;fill-rule:nonzero;stroke:none"
                           id="text17713"><tspan
                             x="0"
                             y="0"
                             id="tspan17711">∆</tspan></text>
<text
                           transform="matrix(1,0,0,-1,337.07,312.561)"
                           style="font-variant:normal;font-weight:normal;font-size:10.90909958px;font-family:CMMI10;-inkscape-font-specification:CMMI10;writing-mode:lr-tb;fill:#000000;fill-opacity:1;fill-rule:nonzero;stroke:none"
                           id="text17717"><tspan
                             x="0"
                             y="0"
                             id="tspan17715">T</tspan></text>
<text
                           transform="matrix(1,0,0,-1,343.445,310.924)"
                           style="font-variant:normal;font-weight:normal;font-size:7.97009993px;font-family:CMMI8;-inkscape-font-specification:CMMI8;writing-mode:lr-tb;fill:#000000;fill-opacity:1;fill-rule:nonzero;stroke:none"
                           id="text17721"><tspan
                             x="0"
                             y="0"
                             id="tspan17719">e</tspan></text>
<g
                           id="g17723"
                           transform="translate(327.979,312.561)" /></g></g><g
                       id="g17725"
                       transform="translate(-3.499,-71.546)" /></g></g></g></g><g
               id="g17727"
               transform="translate(-0.2,-0.199)" /></g><g
             id="g17729"
             transform="translate(0.2,0.199)" /></g><g
           id="g17731" /><g
           id="g17733" /></g></g><g
       id="g17735"
       transform="matrix(0.8202429,0,0,0.8202429,268.736,425.76546)" /><text
       xml:space="preserve"
       style="font-style:normal;font-weight:normal;font-size:15.31970596px;line-height:1.25;font-family:sans-serif;letter-spacing:0px;word-spacing:0px;fill:#000000;fill-opacity:0.4745098;stroke:none;stroke-width:0.38299263"
       x="295.74106"
       y="-342.24133"
       id="text20555"
       transform="scale(1,-1)"><tspan
         sodipodi:role="line"
         id="tspan20553"
         x="295.74106"
         y="-342.24133"
         style="fill:#000000;fill-opacity:0.4745098;stroke-width:0.38299263">NTD</tspan></text>
<text
       xml:space="preserve"
       style="font-style:normal;font-weight:normal;font-size:13.90485573px;line-height:1.25;font-family:sans-serif;letter-spacing:0px;word-spacing:0px;fill:#020002;fill-opacity:0.47843137;stroke:none;stroke-width:0.34762138"
       x="57.246933"
       y="-342.64163"
       id="text20559"
       transform="scale(1,-1)"><tspan
         sodipodi:role="line"
         id="tspan20557"
         x="57.246933"
         y="-342.64163"
         style="fill:#020002;fill-opacity:0.47843137;stroke-width:0.34762138">Cristal Ge</tspan></text>
<text
       xml:space="preserve"
       style="font-style:normal;font-weight:normal;font-size:14.08529472px;line-height:1.25;font-family:sans-serif;letter-spacing:0px;word-spacing:0px;fill:#000000;fill-opacity:0.4745098;stroke:none;stroke-width:0.35213235"
       x="263.12872"
       y="-296.49673"
       id="text20563"
       transform="scale(1,-1)"><tspan
         sodipodi:role="line"
         id="tspan20561"
         x="263.12872"
         y="-296.49673"
         style="fill:#000000;fill-opacity:0.4745098;stroke-width:0.35213235">Cryostat</tspan></text>
</g></svg>